<?xml version="1.0" encoding="utf-8"?>
<!-- Generator: Adobe Illustrator 24.0.1, SVG Export Plug-In . SVG Version: 6.00 Build 0)  -->
<svg version="1.1" id="Layer_1" xmlns="http://www.w3.org/2000/svg" xmlns:xlink="http://www.w3.org/1999/xlink" x="0px" y="0px"
	 viewBox="0 0 261.06 263.08" style="enable-background:new 0 0 261.06 263.08;" xml:space="preserve">
<style type="text/css">
	.st0{fill:#FEE260;}
	.st1{fill:#C84E44;}
	.st2{fill:#FFFFFF;}
</style>
<g>
	<g>
		<path d="M152.78,66.99c0,0,5.44-23.64,11.86-36.5c5.65-11.31,21.92-24.51,34.94-30.15c2.61-1.13,5.55,0.73,5.7,3.58
			c0.24,4.57-0.02,10.97-2.68,14.9c0,0,9,2.36,15.64,6.86c0,0,6.6-6.14,16.95-8.81c2.86-0.74,5.56,1.67,5.12,4.59l-2.57,16.86
			c0,0,4.29,22.84,2.14,32.31c-2.14,9.47-11.14,13.12-26.14,17.62c0,0,1.39,21.78-12.11,34.95c0,0,15.94-2.32,27.61,0
			c14.57,2.89,22.22,9.19,23.64,17.76c1.74,10.43-11.07,11.48-16.21,6.21c-6.2-6.34-21.81-3.44-33.13,0.54
			c-16.53,5.81-25.37,6.95-25.37,6.95s-4.07,19.94-19.93,30.65c-15.86,10.71-17.04,24.11-17.04,24.11s9.67,7.07,21.96,10.39
			c15.64,4.23,23.04,10.93,19.82,22.07c-2.78,9.62-14.31,9.08-18.71,3.79c-1.48-1.77-5.06-4.25-7.37-4.38
			c-9.44-0.56-32.64-2.49-53.53-8.62c-27-7.93-63.06-30-48.46-87.54S152.78,66.99,152.78,66.99z"/>
	</g>
	<g>
		<path d="M64.64,199.88c0,0,25.93,33.35,54.06,45.99c5.31,2.39,9.67,6.4,12.51,11.49c1.3,2.33,3.33,4.48,6.46,5.31
			c8.14,2.14,21.64-3.64,8.57-25.29c-13.07-21.64-39.64-26.57-39.64-26.57L64.64,199.88z"/>
	</g>
	<g>
		<path d="M201.48,109.93c0,0,26.29-14.03,44.04-12.21c20.41,2.09,16.71,18.16,11.25,20.57c-5.46,2.41-10.29-3.54-19.29,0.8
			s-13.5,6.91-13.5,6.91l-31.18,4.66L201.48,109.93z"/>
	</g>
	<g>
		<path class="st0" d="M200.45,47.57c0,1.28-0.99,2.33-2.27,2.45c-2.51,0.22-6.71,0.4-10.03-0.39c-5.07-1.2-8.42-4.97-7.22-10.04
			c1.18-4.99,5.94-8.08,10.97-7.09C199.58,34.01,200.46,43.26,200.45,47.57z"/>
	</g>
	<g>
		<path class="st0" d="M212.46,50.17c-0.55,1.16-0.11,2.53,0.99,3.18c2.17,1.28,5.88,3.25,9.22,3.97c5.09,1.1,9.74-0.85,10.84-5.95
			c1.08-5.01-1.88-9.85-6.85-11.12C219.09,38.3,214.3,46.27,212.46,50.17z"/>
	</g>
	<g>
		<path d="M195.64,45.38c-1.37-0.32-2.33-1.19-2.15-1.93c0.18-0.74,1.42-1.08,2.79-0.75c0.42,0.1,0.8,0.25,1.12,0.44
			c0.63-3.34-1.47-6.61-4.8-7.4c-3.44-0.82-6.89,1.31-7.7,4.75c-0.82,3.44,1.31,6.89,4.75,7.7c2.68,0.64,5.37-0.52,6.81-2.7
			C196.18,45.47,195.91,45.44,195.64,45.38z"/>
	</g>
	<g>
		<path d="M227.62,51.74c-1.37-0.32-2.33-1.19-2.15-1.93c0.18-0.74,1.42-1.08,2.79-0.75c0.27,0.06,0.52,0.16,0.76,0.26
			c0.09-3.02-1.98-5.77-5.04-6.43c-3.45-0.75-6.86,1.45-7.61,4.91c-0.75,3.45,1.45,6.86,4.91,7.61c2.97,0.64,5.91-0.9,7.14-3.55
			C228.16,51.84,227.9,51.81,227.62,51.74z"/>
	</g>
	<g>
		<path class="st1" d="M208.27,51.86c-0.18,0.77-1.6,2-2.91,1.69c-1.31-0.31-2.03-2.04-1.85-2.82c0.18-0.77,1.26-0.59,2.58-0.27
			S208.45,51.09,208.27,51.86z"/>
	</g>
	<g>
		<path class="st2" d="M199.94,124.01l1.36-1.2c4.45-3.91,7.65-13.22,7.68-13.31c0.09-0.26,0.38-0.4,0.63-0.31
			c0.26,0.09,0.4,0.37,0.31,0.63c-0.12,0.36-2.82,8.21-6.87,12.65c3.19-0.4,11.32-1.11,23.9-0.18c0.28,0.02,0.48,0.26,0.46,0.54
			c-0.02,0.28-0.27,0.48-0.54,0.46c-16.33-1.2-25.08,0.37-25.16,0.39L199.94,124.01z"/>
	</g>
	<g>
		<path class="st2" d="M137.42,208.2c-0.08,0-0.15-0.02-0.22-0.05l-6.16-3.08l0.18-0.43c7.85-19.16-1.54-38.31-1.63-38.5
			c-0.12-0.25-0.02-0.55,0.22-0.67c0.24-0.12,0.55-0.02,0.67,0.22c0.1,0.19,9.55,19.46,1.84,38.9l5.33,2.66
			c0.25,0.12,0.35,0.42,0.22,0.67C137.78,208.1,137.6,208.2,137.42,208.2z"/>
	</g>
	<g>
		<path class="st2" d="M172.39,153.24c-0.04,0-0.07,0-0.11-0.01c-17.14-3.86-27.63-19.77-27.74-19.93
			c-0.15-0.23-0.08-0.54,0.15-0.69c0.23-0.15,0.54-0.09,0.69,0.15c0.1,0.16,10.38,15.73,27.12,19.5c0.27,0.06,0.44,0.33,0.38,0.6
			C172.82,153.08,172.62,153.24,172.39,153.24z"/>
	</g>
	<g>
		<path d="M76.83,197.76l-0.39,0.8l-0.33,0.64l-0.66,1.21c-0.44,0.78-0.91,1.54-1.39,2.29c-0.96,1.49-2.01,2.92-3.15,4.3
			c-2.27,2.76-4.95,5.32-8.05,7.52c-1.56,1.09-3.23,2.07-4.99,2.93c-1.78,0.84-3.63,1.55-5.56,2.09c-3.85,1.06-7.92,1.41-11.81,1.1
			c-1.96-0.17-3.81-0.47-5.68-0.87c-0.95-0.24-1.89-0.48-2.84-0.75c-0.95-0.33-1.9-0.68-2.85-1.04c-3.79-1.56-7.53-4.04-10.52-7.27
			l-1.1-1.23l-0.54-0.63l-0.47-0.66c-0.62-0.89-1.23-1.79-1.82-2.71c-0.5-0.93-0.97-1.88-1.44-2.83c-0.22-0.47-0.49-0.96-0.65-1.43
			l-0.51-1.43c-0.32-0.95-0.69-1.93-0.94-2.88l-0.63-2.84l-0.3-1.43c-0.07-0.47-0.12-0.92-0.17-1.38l-0.31-2.77
			c-0.57-7.32,0.26-14.04,1.43-20.51l0.96-4.79c0.18-1.16,0.36-2.31,0.57-3.45c0.16-1.15,0.16-2.3,0.27-3.45
			c0.07-0.57,0.03-1.15,0.01-1.72l-0.04-1.71c-0.24-4.55-1.23-9.06-3.04-13.34c-0.86-2.15-1.95-4.21-3.12-6.2l-0.92-1.45l-0.97-1.39
			c-0.33-0.43-0.66-0.88-0.98-1.28l-0.47-0.57l-0.2-0.21l-0.09-0.1l0.04,0.06c-4.69-5.4-4.12-13.59,1.28-18.28
			c5.4-4.69,13.59-4.12,18.28,1.28l0.4,0.49l0.26,0.34l0.49,0.66l0.85,1.22c0.54,0.8,1.04,1.59,1.54,2.38
			c0.47,0.79,0.94,1.58,1.39,2.38l1.27,2.41c1.6,3.25,3,6.58,4.09,10.03c2.25,6.86,3.3,14.21,3.09,21.5l-0.15,2.73
			c-0.05,0.91-0.09,1.82-0.25,2.72c-0.28,1.79-0.48,3.6-0.86,5.37l-1.31,5.24l-1.08,3.86c-1.35,5.09-2.31,10.19-2.3,14.73l0.05,1.66
			c0.01,0.28,0,0.56,0.02,0.83l0.11,0.76l0.19,1.53c0.08,0.49,0.24,0.91,0.34,1.37l0.16,0.69c0.04,0.24,0.16,0.4,0.23,0.61
			c0.16,0.39,0.3,0.8,0.45,1.2c0.21,0.33,0.4,0.68,0.58,1.03l0.13,0.27l0.18,0.22c0.12,0.15,0.23,0.3,0.34,0.46
			c0.92,1.21,2.11,2.25,3.72,3.11c0.43,0.19,0.86,0.39,1.28,0.6l1.43,0.51c1,0.3,2.07,0.57,3.05,0.74
			c3.99,0.64,7.77,0.02,11.47-2.16c1.83-1.09,3.63-2.5,5.26-4.2c0.82-0.84,1.6-1.75,2.33-2.7c0.36-0.47,0.71-0.95,1.04-1.44
			l0.47-0.71l0.21-0.33c0.05-0.08,0.15-0.26,0.12-0.19c1.79-3.73,6.27-5.31,10.01-3.52S78.62,194.02,76.83,197.76z"/>
	</g>
</g>
</svg>
