<?xml version="1.0" encoding="utf-8"?>
<!-- Generator: Adobe Illustrator 24.0.1, SVG Export Plug-In . SVG Version: 6.00 Build 0)  -->
<svg version="1.1" id="Layer_1" xmlns="http://www.w3.org/2000/svg" xmlns:xlink="http://www.w3.org/1999/xlink" x="0px" y="0px"
	 viewBox="0 0 219.24 234.71" style="enable-background:new 0 0 219.24 234.71;" xml:space="preserve">
<style type="text/css">
	.st0{fill:#FEE260;}
	.st1{fill:#C84E44;}
	.st2{fill:#FFFFFF;}
</style>
<g>
	<g>
		<path d="M206.51,69.62c3.24-4.45,6.21-9.24,8.6-14.64c2.34-5.41,4.18-11.55,4.14-18.56c-0.03-3.48-0.61-7.15-1.84-10.67
			c-1.17-3.32-2.83-6.51-4.92-9.39c-4.18-5.78-9.99-10.26-16.45-13c-6.47-2.75-13.64-3.87-20.75-3.14
			c-7.1,0.71-14.09,3.3-20.01,7.32c-2.95,2.02-5.63,4.36-8.03,6.89c-2.38,2.55-4.42,5.31-6.24,8.14l-0.27,0.41
			c-0.33,0.52-0.63,1.07-0.9,1.65c-3.31,7.13-0.21,15.6,6.92,18.91c7.13,3.31,15.6,0.21,18.91-6.92c2.85-6.13,7.32-10.2,13.11-11.61
			c2.87-0.7,6.02-0.63,8.97,0.19c2.95,0.82,5.64,2.4,7.68,4.55c1.02,1.08,1.9,2.3,2.59,3.66c0.6,1.18,1.03,2.51,1.25,4.05
			c0.45,3.08-0.05,6.97-1.27,10.95c-1.25,4-3.14,8.09-5.42,12.07c-1.14,1.99-2.37,3.95-3.68,5.88c-0.58,0.84-1.17,1.68-1.78,2.5
			c-21.64-9.97-46.19,1.3-58.53,14.84c-13.29,14.57-37.29,24.96-37.29,24.96c19.61-22.41,20.52-29.08-3.58-53.65
			c0,0-8.15-22.68-13.16-28.57c-1.53-1.8-4.28-1.77-5.81,0.02c-6.87,8.03-10.45,23.8-10.45,23.8c-11.57-2.14-20.36-0.64-20.36-0.64
			c-2.6-10.26-6.84-16.21-11.24-20.98c-1.85-2-5.13-1.49-6.28,0.99c-4.84,10.48-5.62,27.6-5.62,27.6S-2.57,80.38,0.33,92.92
			c2.24,9.72,18.11,25.71,18.11,25.71s0.21,29.79,6.86,45.64c6.64,15.86,9.43,56.14,9.43,56.14s-6.21,10.71-0.21,13.35
			s16.07-0.49,18-6.06c1.93-5.57,4.29-35.14,4.29-35.14c9.64,4.71,9.86,29.36,9.86,29.36s-1.29,3-0.64,8.14
			c0.64,5.14,13.29,4.29,15.86,1.32c2.57-2.97,2.57-20.82,10.07-35.82S126,177.99,126,177.99l3.86,42.43
			c-3.43,6.43-0.64,10.71,6.64,10.95c7.29,0.23,9.21-3.45,9.86-6.66c0.64-3.21,4.97-45.36,4.97-45.36c3.56,4.37,5.38,9.9,5.11,15.53
			l-1.08,22.76c0,0-2.36,4.71-2.36,9.86c0,5.14,11.57,4.5,16.71,1.93c5.14-2.57,8.14-48,24.43-73.01
			c14.22-21.84,19.29-59.36,5.21-78.06c0.69-0.76,1.38-1.53,2.06-2.31C203.18,73.98,204.88,71.85,206.51,69.62z"/>
	</g>
	<g>
		<path class="st0" d="M44.14,80.75c0.33,1.42-0.49,2.85-1.87,3.3c-2.72,0.9-7.33,2.21-11.22,2.21c-5.93,0-10.64-3.29-10.64-9.22
			c0-5.84,4.46-10.51,10.29-10.74C39.62,65.95,43.02,75.97,44.14,80.75z"/>
	</g>
	<g>
		<path class="st0" d="M58.13,80.47c-0.3,1.42,0.55,2.84,1.94,3.27c2.74,0.85,7.37,2.06,11.26,1.98c5.93-0.12,10.57-3.51,10.45-9.44
			c-0.12-5.84-4.67-10.41-10.51-10.53C62.35,65.58,59.15,75.67,58.13,80.47z"/>
	</g>
	<g>
		<path d="M38.23,79.58c-1.6,0-2.89-0.7-2.89-1.57c0-0.87,1.3-1.57,2.89-1.57c0.49,0,0.95,0.07,1.36,0.19
			c-0.18-3.86-3.36-6.94-7.27-6.94c-4.02,0-7.29,3.26-7.29,7.29c0,4.02,3.26,7.29,7.29,7.29c3.14,0,5.81-1.99,6.83-4.78
			C38.86,79.55,38.56,79.58,38.23,79.58z"/>
	</g>
	<g>
		<path d="M75.34,78.23c-1.6,0-2.89-0.7-2.89-1.57s1.3-1.57,2.89-1.57c0.32,0,0.62,0.03,0.91,0.09c-0.7-3.37-3.71-5.88-7.28-5.8
			c-4.02,0.08-7.22,3.41-7.14,7.43s3.41,7.22,7.43,7.14c3.46-0.07,6.31-2.55,6.98-5.8C75.96,78.2,75.66,78.23,75.34,78.23z"/>
	</g>
	<g>
		<path class="st1" d="M53.93,83.44c0,0.9-1.25,2.63-2.79,2.63c-1.54,0-2.79-1.73-2.79-2.63c0-0.9,1.25-0.98,2.79-0.98
			C52.68,82.46,53.93,82.54,53.93,83.44z"/>
	</g>
	<g>
		<path class="st2" d="M188.31,99.16c-0.16,0-0.32-0.08-0.42-0.23c-3.54-5.42-9.24-8.36-9.29-8.39c-0.25-0.13-0.34-0.43-0.22-0.67
			c0.13-0.25,0.43-0.34,0.67-0.22c0.24,0.12,5.98,3.08,9.68,8.73c0.15,0.23,0.09,0.54-0.15,0.69
			C188.5,99.13,188.41,99.16,188.31,99.16z"/>
	</g>
	<g>
		<path class="st2" d="M178.83,99.16c-0.09,0-0.19-0.03-0.27-0.08c-0.23-0.15-0.3-0.46-0.15-0.69c3.7-5.65,9.44-8.61,9.68-8.73
			c0.25-0.12,0.55-0.03,0.67,0.22c0.13,0.25,0.03,0.55-0.22,0.67c-0.06,0.03-5.75,2.97-9.29,8.39
			C179.15,99.08,178.99,99.16,178.83,99.16z"/>
	</g>
</g>
</svg>
