<?xml version="1.0" encoding="utf-8"?>
<!-- Generator: Adobe Illustrator 24.0.1, SVG Export Plug-In . SVG Version: 6.00 Build 0)  -->
<svg version="1.1" id="Layer_1" xmlns="http://www.w3.org/2000/svg" xmlns:xlink="http://www.w3.org/1999/xlink" x="0px" y="0px"
	 viewBox="0 0 196.87 244.99" style="enable-background:new 0 0 196.87 244.99;" xml:space="preserve">
<style type="text/css">
	.st0{fill:#FEE260;}
	.st1{fill:#C84E44;}
	.st2{fill:#FFFFFF;}
</style>
<g>
	<g>
		<g>
			<path d="M180.74,116.42c-0.04-0.01-0.08-0.02-0.12-0.03C180.7,116.41,180.73,116.42,180.74,116.42z"/>
		</g>
		<g>
			<path d="M188.35,92.87c-0.59-0.18-0.73-0.21-1.05-0.29l-0.78-0.19c-0.5-0.11-0.98-0.21-1.46-0.3c-0.95-0.18-1.89-0.31-2.83-0.43
				c-1.88-0.22-3.77-0.32-5.69-0.3c-3.84,0.04-7.88,0.62-11.9,2.03c-4,1.38-7.95,3.69-11.1,6.69c-3.21,2.98-5.57,6.52-7.23,10.03
				c-1.69,3.55-2.84,7.49-3.26,11.24c-0.45,3.76-0.35,7.33,0,10.62c0.73,6.6,2.3,12.17,3.52,17.35c1.24,5.16,2.22,9.9,2.38,14.26
				c0.08,2.18-0.04,4.25-0.38,6.25l-0.31,1.48l-0.4,1.46l-1.13,3.17c-1.38,3.4-3.26,6.51-5.57,9.26c0.15-6.28-0.11-13.27-1.04-20.82
				c-3.86-31.29-26.04-77.68-26.04-77.68s7.71-18.5,2.57-44.63S94.28-2.34,90.42,0.24s-5.57,22.7-5.57,22.7
				c-10.71-2.57-16.71-0.43-16.71-0.43C58.28,1.94,47.99-2.34,44.56,1.53c-3.43,3.87-3.86,27.84-3.86,27.84S26.09,44.73,21.85,58.78
				c-6,19.89,9.86,28.45,9.86,28.45s-14.57-4.29-27,19.71c-12.43,24,1.71,42.43,19.71,42c18-0.43,13.29,10.29,13.29,10.29
				s-18.43-6.43-25.14,18c-6.71,24.43,11.86,40.29,11.86,40.29s-1.71,0-11.86,3.86c-10.14,3.86-16,13.71,0,17.77
				s40.57-3.2,40.57-3.2l27.55-0.56c0,0-4.52,8.17,8.98,9.46s23.16-5.88,23.16-5.88v0c3.79-0.24,7.66-0.78,11.45-1.72
				c20.57-5.14,12-19.71,12-19.71s1.44-4.08,2.76-11.23c1.22-0.55,2.42-1.14,3.58-1.78c2.89-1.62,5.57-3.55,8.07-5.71
				c4.94-4.38,9-9.76,11.9-15.59c0.67-1.47,1.33-2.94,1.98-4.44l0.88-2.45l0.73-2.5c0.87-3.35,1.31-6.76,1.44-10.06
				c0.26-6.63-0.64-12.76-1.54-18.34c-0.91-5.57-1.86-10.71-1.97-15.06c-0.06-2.17,0.08-4.11,0.43-5.78
				c0.34-1.69,0.91-3.03,1.69-4.37c0.81-1.38,1.69-2.38,2.6-3.03c0.45-0.35,0.91-0.62,1.42-0.84c0.5-0.23,1.04-0.42,1.65-0.56
				c1.2-0.29,2.68-0.4,4.31-0.27c0.81,0.06,1.66,0.18,2.5,0.35c0.42,0.09,0.83,0.19,1.22,0.3l0.54,0.16l0.22,0.08
				c0.01,0.01,0.09,0.04,0.06,0.03c6.46,2.05,13.38-1.47,15.5-7.93C198.38,102,194.84,95.01,188.35,92.87z"/>
		</g>
	</g>
	<g>
		<path class="st2" d="M23.13,128.23c-0.24,0-0.45-0.17-0.49-0.42c-1.09-6.53,4.92-16.85,5.17-17.29l0.15-0.26l0.3,0.01
			c4.69,0.21,8.5-0.97,11.06-3.42c2.26-2.16,3.45-5.25,3.45-8.92c0-7.41-7.83-8.88-8.16-8.94c-0.27-0.05-0.45-0.31-0.41-0.58
			c0.05-0.27,0.31-0.45,0.58-0.41c0.09,0.02,8.99,1.67,8.99,9.92c0,3.95-1.3,7.29-3.76,9.64c-2.7,2.58-6.67,3.86-11.49,3.7
			c-0.92,1.64-5.84,10.73-4.9,16.36c0.05,0.27-0.14,0.53-0.41,0.58C23.19,128.23,23.16,128.23,23.13,128.23z"/>
	</g>
	<g>
		<path class="st2" d="M56.24,183.62c-0.25,0-0.46-0.18-0.49-0.43c-2.5-17.81-15.07-22.05-15.19-22.09
			c-0.26-0.08-0.41-0.37-0.32-0.63s0.37-0.4,0.63-0.32c0.13,0.04,13.29,4.49,15.88,22.91c0.04,0.27-0.15,0.53-0.43,0.56
			C56.29,183.62,56.26,183.62,56.24,183.62z"/>
	</g>
	<g>
		<path class="st0" d="M58.14,57.07c0.33,1.42-0.49,2.85-1.87,3.3c-2.72,0.9-7.33,2.21-11.22,2.21c-5.93,0-10.64-3.29-10.64-9.22
			c0-5.84,4.46-10.51,10.29-10.74C53.62,42.27,57.02,52.29,58.14,57.07z"/>
	</g>
	<g>
		<path class="st0" d="M72.13,56.79c-0.3,1.42,0.55,2.84,1.94,3.27c2.74,0.85,7.37,2.06,11.26,1.98c5.93-0.12,10.57-3.51,10.45-9.44
			c-0.12-5.84-4.67-10.41-10.51-10.53C76.35,41.9,73.15,51.99,72.13,56.79z"/>
	</g>
	<g>
		<path d="M51.67,58.56c-1.6,0-2.89-0.7-2.89-1.57c0-0.87,1.3-1.57,2.89-1.57c0.49,0,0.95,0.07,1.36,0.19
			c-0.18-3.86-3.36-6.94-7.27-6.94c-4.02,0-7.29,3.26-7.29,7.29c0,4.02,3.26,7.29,7.29,7.29c3.14,0,5.81-1.99,6.83-4.78
			C52.3,58.52,52,58.56,51.67,58.56z"/>
	</g>
	<g>
		<path d="M87.9,56.86c-1.6,0-2.89-0.7-2.89-1.57s1.3-1.57,2.89-1.57c0.32,0,0.62,0.03,0.91,0.09c-0.7-3.37-3.71-5.88-7.28-5.8
			c-4.02,0.08-7.22,3.41-7.14,7.43s3.41,7.22,7.43,7.14c3.46-0.07,6.31-2.55,6.98-5.8C88.52,56.83,88.21,56.86,87.9,56.86z"/>
	</g>
	<g>
		<path class="st1" d="M67.93,59.76c0,0.9-1.25,2.63-2.79,2.63c-1.54,0-2.79-1.73-2.79-2.63s1.25-0.98,2.79-0.98
			C66.68,58.78,67.93,58.86,67.93,59.76z"/>
	</g>
	<g>
		<path class="st2" d="M83.57,230.87c-0.03,0-0.06,0-0.09-0.01c-0.27-0.05-0.45-0.31-0.4-0.59c0.03-0.15,2.89-15.39,3.21-42.66
			c0.32-27.29-1.28-43.18-1.29-43.34c-0.03-0.27,0.17-0.52,0.45-0.55c0.26-0.02,0.52,0.17,0.55,0.45c0.02,0.16,1.62,16.1,1.3,43.45
			c-0.32,27.37-3.2,42.69-3.23,42.84C84.01,230.71,83.8,230.87,83.57,230.87z"/>
	</g>
	<g>
		<path class="st2" d="M113.13,234.41c-0.04,0-0.07,0-0.11-0.01c-0.27-0.06-0.44-0.33-0.38-0.6c3.17-14.58,5.11-44.31,5.13-44.6
			c0.02-0.28,0.27-0.48,0.53-0.47c0.28,0.02,0.48,0.26,0.47,0.53c-0.02,0.3-1.97,30.1-5.15,44.75
			C113.57,234.25,113.36,234.41,113.13,234.41z"/>
	</g>
</g>
</svg>
