<?xml version="1.0" encoding="utf-8"?>
<!-- Generator: Adobe Illustrator 24.0.1, SVG Export Plug-In . SVG Version: 6.00 Build 0)  -->
<svg version="1.1" id="Layer_1" xmlns="http://www.w3.org/2000/svg" xmlns:xlink="http://www.w3.org/1999/xlink" x="0px" y="0px"
	 viewBox="0 0 316.54 254.08" style="enable-background:new 0 0 316.54 254.08;" xml:space="preserve">
<style type="text/css">
	.st0{fill:#FEE260;}
	.st1{fill:#C84E44;}
	.st2{fill:#FFFFFF;}
</style>
<g>
	<g>
		<path d="M150.11,155.94c0,0,0.86-16.07-7.29-29.79c-5.04-8.48-10.4-15.77-13.76-20.09c-1.91-2.45-5.59-2.46-7.54-0.04
			c-2.82,3.49-5.99,9.07-5.75,16.31c0,0-17.95-2.61-24.38-0.46l-6.24-16.65c-1.29-3.43-5.8-4.22-8.15-1.41
			c-4.91,5.86-11.55,15.07-12.61,23.09c0,0-16.37,20.99-15.94,29.99c0.43,9,9.94,18.12,18.51,25.83c0,0-20.09,26.39-44.79,36.13
			c-1.85,0.73-3.82,1.07-5.81,1.03c-3.56-0.07-9.83,0.23-12.51,2.91c-3.86,3.86-7.82,12.21,4.18,19.07
			c12,6.86,23.57,1.93,23.57,1.93s7.83,10.14,27.21,10.29c32.79,0.25,66.21-21.64,66.21-21.64s38.36,8.57,68.36,3
			s45.86-33.35,45.86-33.35s-1.29,19.64-5.14,27.35c-3.86,7.71-10.71,13.61-3.8,16.66c6.91,3.05,15.59,1.77,21.54-4.5
			c5.95-6.27,8.2-9.32,17.2-31.34s42.21-57.96,35.36-87.54s-39.86-51.86-76.29-37.71s-33.86,47.14-52.29,59.14
			S150.11,155.94,150.11,155.94z"/>
	</g>
	<g>
		<path d="M268.27,20.34c0.01-0.01-0.2,0.06-0.32,0.1l-0.45,0.16l-0.96,0.35c-0.65,0.24-1.3,0.51-1.94,0.78
			c-1.29,0.55-2.56,1.15-3.77,1.78c-2.43,1.26-4.62,2.71-6.29,4.16c-1.68,1.45-2.61,2.87-2.87,3.6c-0.16,0.38-0.19,0.62-0.17,1.01
			c-0.02,0.09,0.01,0.2,0.03,0.32c0.02,0.12,0,0.23,0.07,0.38c0.05,0.14,0.08,0.29,0.11,0.43c0.07,0.11,0.12,0.23,0.16,0.36
			l0.06,0.19c0.04,0.05,0.08,0.1,0.11,0.15c0.07,0.1,0.12,0.22,0.17,0.34c0.22,0.18,0.28,0.44,0.56,0.65
			c0.38,0.47,1.14,0.94,1.95,1.45c1.79,0.98,4.32,1.87,7.13,2.58c5.68,1.44,12.33,2.31,19.27,3.76c3.48,0.73,7.08,1.61,10.77,2.88
			c3.68,1.29,7.48,3,11.09,5.55c3.6,2.52,6.92,5.98,9.2,9.98c0.31,0.49,0.58,0.99,0.81,1.48l0.71,1.48c0.48,0.98,0.83,2.07,1.23,3.1
			c0.34,1.07,0.64,2.17,0.91,3.28c0.19,1.13,0.46,2.24,0.53,3.39l0.14,1.71c0.02,0.57,0.01,1.14,0.01,1.71
			c0.03,1.15-0.12,2.27-0.22,3.4c-0.3,2.22-0.77,4.41-1.48,6.44c-1.36,4.11-3.41,7.69-5.67,10.91c-2.3,3.2-4.85,6.04-7.58,8.63
			c-1.36,1.29-2.77,2.52-4.22,3.69c-0.72,0.59-1.46,1.16-2.22,1.72l-1.16,0.84l-0.61,0.42l-0.71,0.48
			c-3.44,2.31-8.09,1.39-10.4-2.05c-2.23-3.32-1.45-7.78,1.71-10.16l0.41-0.31l0.72-0.54l0.84-0.66c0.56-0.45,1.13-0.92,1.68-1.41
			c1.11-0.96,2.18-1.98,3.2-3.02c2.04-2.08,3.87-4.3,5.37-6.58c3.01-4.58,4.48-9.31,3.82-13.35c-0.02-0.52-0.22-1.02-0.3-1.54
			c-0.15-0.51-0.31-1.01-0.49-1.52c-0.25-0.5-0.39-1.01-0.68-1.51c-0.29-0.48-0.51-1.07-0.82-1.45c-1.11-1.75-2.56-3.16-4.45-4.39
			c-3.78-2.49-9.41-3.98-15.51-5c-6.15-1.07-12.79-1.65-20.11-3.19c-3.67-0.8-7.58-1.84-11.74-3.89c-2.08-1.12-4.22-2.37-6.22-4.25
			c-1.02-0.84-1.92-1.97-2.83-3.01c-0.42-0.57-0.82-1.16-1.21-1.75l-0.58-0.89l-0.48-0.93c-0.32-0.63-0.62-1.26-0.92-1.9
			c-0.25-0.64-0.47-1.28-0.7-1.93c-0.24-0.63-0.39-1.34-0.56-2.04c-0.16-0.7-0.31-1.4-0.38-2.14c-0.4-2.91-0.17-6.08,0.66-8.88
			c0.81-2.82,2.09-5.29,3.52-7.39c1.44-2.1,3.02-3.88,4.64-5.41c3.25-3.05,6.63-5.36,10.04-7.32c1.71-0.98,3.43-1.87,5.17-2.69
			c0.87-0.41,1.75-0.81,2.65-1.19l1.37-0.56l0.72-0.28l0.85-0.31c5.47-1.82,11.38,1.13,13.2,6.6
			C276.69,12.6,273.74,18.52,268.27,20.34z"/>
	</g>
	<g>
		<path class="st2" d="M79.66,149.53H67.44c-0.28,0-0.5-0.22-0.5-0.5s0.22-0.5,0.5-0.5h9.78c-9.39-4.12-13.29-7.01-13.46-7.14
			c-0.22-0.17-0.27-0.48-0.1-0.7c0.17-0.22,0.48-0.26,0.7-0.1c0.04,0.03,4.6,3.4,15.48,7.98c0.22,0.09,0.34,0.33,0.3,0.56
			C80.1,149.36,79.89,149.53,79.66,149.53z"/>
	</g>
	<g>
		<path class="st2" d="M104.89,150.04c-0.23,0-0.44-0.16-0.49-0.39c-0.05-0.23,0.06-0.47,0.28-0.57
			c10.77-4.85,15.23-8.33,15.28-8.36c0.22-0.17,0.53-0.13,0.7,0.08c0.17,0.22,0.13,0.53-0.08,0.7c-0.17,0.13-3.99,3.11-13.27,7.47
			l9.78-0.25c0,0,0.01,0,0.01,0c0.27,0,0.49,0.22,0.5,0.49c0.01,0.28-0.21,0.51-0.49,0.51l-12.21,0.31
			C104.9,150.04,104.89,150.04,104.89,150.04z"/>
	</g>
	<g>
		<path class="st1" d="M93.58,150.51c0,0.9-1.25,2.63-2.79,2.63c-1.54,0-2.79-1.73-2.79-2.63c0-0.9,1.25-0.98,2.79-0.98
			C92.34,149.52,93.58,149.6,93.58,150.51z"/>
	</g>
	<g>
		<path class="st2" d="M238.18,191.8c-0.26,0-0.48-0.2-0.5-0.46c-2.87-33.53,7.68-50.45,7.79-50.62c0.15-0.23,0.46-0.3,0.69-0.15
			c0.23,0.15,0.3,0.46,0.15,0.69c-0.11,0.16-10.48,16.83-7.64,49.99c0.02,0.27-0.18,0.52-0.46,0.54
			C238.21,191.8,238.19,191.8,238.18,191.8z"/>
	</g>
	<g>
		<path class="st2" d="M31.93,240.55c-0.24,0-0.45-0.17-0.49-0.42c-0.04-0.22-0.86-5.54,2.17-9.61c1.76-2.37,4.46-3.8,8.01-4.25
			c4.13-0.53,5.84,0.36,7.65,1.31c2.21,1.15,4.71,2.46,12.91,1.16c14.49-2.31,33.64-17.74,33.84-17.89c0.21-0.17,0.53-0.14,0.7,0.07
			c0.17,0.21,0.14,0.53-0.07,0.7c-0.19,0.16-19.56,15.75-34.31,18.11c-8.52,1.36-11.19-0.03-13.53-1.26
			c-1.74-0.91-3.24-1.7-7.06-1.2c-3.27,0.42-5.74,1.72-7.34,3.85c-2.78,3.72-1.99,8.81-1.98,8.86c0.04,0.27-0.14,0.53-0.41,0.57
			C31.98,240.54,31.95,240.55,31.93,240.55z"/>
	</g>
</g>
</svg>
