<?xml version="1.0" encoding="utf-8"?>
<!-- Generator: Adobe Illustrator 24.0.1, SVG Export Plug-In . SVG Version: 6.00 Build 0)  -->
<svg version="1.1" id="Layer_1" xmlns="http://www.w3.org/2000/svg" xmlns:xlink="http://www.w3.org/1999/xlink" x="0px" y="0px"
	 viewBox="0 0 217.77 284.47" style="enable-background:new 0 0 217.77 284.47;" xml:space="preserve">
<style type="text/css">
	.st0{fill:#FEE260;}
	.st1{fill:#C84E44;}
	.st2{fill:#FFFFFF;}
</style>
<g>
	<g>
		<path d="M44.43,95.97l1.37-10.94c-0.28-4.34-8.66-18.01-7.07-25.25c3.26-14.77,17.1-28.33,17.1-28.33s-3.34-13.75,6.4-29.5
			c1.59-2.57,5.32-2.6,7-0.09c4.38,6.53,12.02,17.75,16.69,23.67c0,0,12.77-0.65,21.89,3.1c0,0,8.38-15.01,17.67-22.74
			c2.24-1.86,5.63-0.99,6.63,1.74c4.53,12.3,14.41,45.83,1.69,77.54c0,0,5.93-12.76,20.52-23.88c14.59-11.12,21.89,2.22,18.69,12.19
			s-15.96,11.8-17.78,30.95c-1.82,19.15-15.5,28.73-15.5,28.73s4.91,17.24,12.2,27.7c0.06,0.08,0.28,0.09,0.64,0.05
			c8.82-1.05,17.33,3.56,20.79,11.74l0.22,0.52c0,0-0.28-15.42,5.6-29.3c4.9-11.57,13.35-18.8,22.68-14.48
			c7.64,3.53,4.19,15.05-0.23,29.98c-3.88,13.11-1.42,23.76-0.91,34.6c0.53,11.24-9.06,20.67-20.23,19.38
			c-0.4-0.05-0.8-0.1-1.2-0.18c0,0-7.18,24.96-37.62,28.38s-36.93,8.21-60.53,1.71c-23.6-6.5-35.02-36.39-37.96-67.03
			c-1.2-12.48-0.58-17.78-1.12-35.3c0,0-11.19-0.26-17-11.66c-5.73-11.23-0.74-29.91-15.5-43.54C-0.76,76.19-3.29,66.13,4.76,61.26
			C11.14,57.4,29.84,59.78,44.43,95.97z"/>
	</g>
	<g>
		<path class="st0" d="M78.05,57.24c0.2,1.54-0.81,2.96-2.32,3.31c-2.97,0.67-7.99,1.58-12.11,1.18
			c-6.28-0.61-10.92-4.58-10.31-10.87c0.6-6.18,5.8-10.66,12.01-10.3C74.8,41.1,77.37,52.06,78.05,57.24z"/>
	</g>
	<g>
		<path class="st0" d="M92.9,58.39c-0.47,1.48,0.28,3.06,1.71,3.66c2.81,1.18,7.6,2.94,11.72,3.26c6.29,0.49,11.55-2.62,12.04-8.91
			c0.48-6.19-3.87-11.51-10.04-12.23C98.91,43.06,94.47,53.41,92.9,58.39z"/>
	</g>
	<g>
		<path d="M71.92,55.39c-1.69-0.17-2.99-1.04-2.9-1.96c0.09-0.92,1.53-1.53,3.23-1.36c0.52,0.05,1,0.18,1.42,0.34
			c0.21-4.11-2.84-7.7-6.98-8.1c-4.26-0.42-8.05,2.7-8.47,6.96c-0.42,4.26,2.7,8.05,6.96,8.47c3.33,0.32,6.36-1.51,7.73-4.35
			C72.59,55.42,72.27,55.43,71.92,55.39z"/>
	</g>
	<g>
		<path d="M111.35,57.8c-1.69-0.17-2.99-1.04-2.9-1.96s1.53-1.53,3.23-1.36c0.34,0.03,0.65,0.1,0.95,0.19
			c-0.39-3.64-3.32-6.61-7.11-6.9c-4.27-0.33-8,2.86-8.33,7.13c-0.33,4.27,2.86,8,7.13,8.33c3.68,0.28,6.94-2.05,7.99-5.42
			C112.01,57.82,111.69,57.83,111.35,57.8z"/>
	</g>
	<g>
		<path class="st1" d="M88.14,61.1c-0.09,0.96-1.59,2.66-3.22,2.5c-1.63-0.16-2.77-2.12-2.68-3.08s1.42-0.91,3.05-0.75
			C86.92,59.93,88.23,60.15,88.14,61.1z"/>
	</g>
	<g>
		<path class="st2" d="M83.41,182.19c-0.12,0-0.23-0.04-0.33-0.12c-6.36-5.48-13.67-4.68-13.75-4.67c-0.27,0.04-0.52-0.16-0.56-0.44
			c-0.03-0.27,0.16-0.52,0.44-0.56c0.31-0.04,7.82-0.87,14.52,4.9c0.21,0.18,0.23,0.5,0.05,0.71
			C83.69,182.13,83.55,182.19,83.41,182.19z"/>
	</g>
	<g>
		<path class="st2" d="M102.98,233.12c-1.48,0-2.94-0.24-4.32-0.73c-0.26-0.09-0.4-0.38-0.3-0.64c0.09-0.26,0.38-0.39,0.64-0.3
			c4.12,1.47,9.14,0.48,12.78-2.53c3.92-3.24,5.6-8.14,4.72-13.79c-0.37-2.39-1.1-5.4-1.95-8.88c-2.31-9.5-5.19-21.33-3.26-30.55
			c2.39-11.43-1.37-19.03-6.16-21.48c-4.48-2.3-9.86-0.55-14.75,4.79c-11.98,13.08-4.3,39.38-4.22,39.64
			c0.08,0.26-0.07,0.54-0.34,0.62c-0.26,0.08-0.54-0.07-0.62-0.34c-0.33-1.1-7.92-27.1,4.44-40.61c5.14-5.61,11.1-7.49,15.94-5
			c6.16,3.16,8.85,12.23,6.68,22.58c-1.88,9,0.96,20.71,3.25,30.11c0.85,3.51,1.59,6.53,1.97,8.96c0.93,6.02-0.87,11.24-5.07,14.72
			C109.72,231.93,106.3,233.12,102.98,233.12z"/>
	</g>
	<g>
		<path d="M133.64,211.37c0,0,15.69,24.26,39.43,36.03c28.27,14.01,35.01,1.69,43.3,16.52c5.12,9.15-4.21,20.29-20.56,20.54
			s-34.07-11.78-48.23-26.24c-14.16-14.47-18.22-26.79-18.22-26.79L133.64,211.37z"/>
	</g>
</g>
</svg>
