<?xml version="1.0" encoding="utf-8"?>
<!-- Generator: Adobe Illustrator 24.0.1, SVG Export Plug-In . SVG Version: 6.00 Build 0)  -->
<svg version="1.1" id="Layer_1" xmlns="http://www.w3.org/2000/svg" xmlns:xlink="http://www.w3.org/1999/xlink" x="0px" y="0px"
	 viewBox="0 0 320.06 234.65" style="enable-background:new 0 0 320.06 234.65;" xml:space="preserve">
<style type="text/css">
	.st0{fill:#FEE260;}
	.st1{fill:#C84E44;}
	.st2{fill:#FFFFFF;}
</style>
<g>
	<g>
		<path d="M317.11,157.37c-2.42-2.42-6.93-3.38-12.45-3.7c3.01-2.77,4.98-6.26,2.98-10.12c-4.38-8.43-14.89-7.44-34.55-9.64
			c-8.52-0.95-15.66-4.29-21.03-7.76c0-0.25,0-0.49,0-0.74c0-16.74-11.41-38.17-11.41-38.17s15.73-13.95,15.73-23.84
			c0-15.22-10.4-28.83-10.4-28.83c3.35-7.1,4.47-15.73,4.83-21.64c0.2-3.41-3.31-5.83-6.42-4.41
			c-13.64,6.18-19.71,14.56-19.71,14.56c-11.03-4.18-24.35-0.38-24.35-0.38c1.47-11.16-0.88-14.25-3.4-19.91
			c-1.51-3.4-6.19-3.77-8.22-0.64c-2.84,4.39-9.53,12.72-17.55,24.99c-8.38,12.82-10.71,26.36-10.74,37.38
			c-0.03,11.59-9.52,20.99-21.11,21.09c-44.57,0.41-67.8,25.74-71.37,60.73c-1.9,18.64,5.71,28.91,6.96,35.33
			c-7.55,5.69-12.48,8.27-22.63,11.93c-33.03,11.89-38.9-2.58-49.96,12.76c-6.82,9.47,2.08,22.96,20.12,25.31
			c18.04,2.35,39.15-8.69,56.64-22.88c5.79-4.7,10.32-9.28,13.8-13.31c-0.46,2.88,0.01,6.63,2.97,10.96
			c9.38,13.7,45.15,14.46,60.36,16.99c15.22,2.54,27.39,16.87,40.07,8.75c8.94-5.72,6.21-20.16-18.64-26
			c-15.27-3.58-30.82-7.36-30.82-7.36s31.9-5.89,55.04-14.46c20.54-7.61,29.17-12.43,29.17-12.43s26.76,9.38,59.86,5.96
			C318.15,175.09,324.72,164.98,317.11,157.37z"/>
	</g>
	<g>
		<path class="st0" d="M208.44,51.01c0.32,1.36-0.47,2.72-1.79,3.16c-2.6,0.86-7.01,2.11-10.72,2.11c-5.67,0-10.17-3.15-10.17-8.82
			c0-5.58,4.26-10.04,9.83-10.26C204.12,36.87,207.38,46.44,208.44,51.01z"/>
	</g>
	<g>
		<path class="st0" d="M221.82,50.74c-0.29,1.36,0.52,2.71,1.85,3.12c2.62,0.81,7.05,1.97,10.76,1.89c5.67-0.11,10.1-3.35,9.98-9.02
			c-0.11-5.58-4.46-9.95-10.04-10.06C225.85,36.51,222.79,46.15,221.82,50.74z"/>
	</g>
	<g>
		<path d="M202.8,49.9c-1.53,0-2.76-0.67-2.76-1.5c0-0.83,1.24-1.5,2.76-1.5c0.47,0,0.91,0.07,1.3,0.18
			c-0.17-3.69-3.21-6.63-6.95-6.63c-3.85,0-6.96,3.12-6.96,6.96c0,3.85,3.12,6.96,6.96,6.96c3,0,5.55-1.9,6.53-4.56
			C203.4,49.86,203.11,49.9,202.8,49.9z"/>
	</g>
	<g>
		<path d="M238.26,48.6c-1.53,0-2.76-0.67-2.76-1.5c0-0.83,1.24-1.5,2.76-1.5c0.31,0,0.59,0.03,0.87,0.08
			c-0.67-3.22-3.55-5.62-6.95-5.55c-3.84,0.08-6.9,3.26-6.82,7.1s3.26,6.9,7.1,6.82c3.31-0.07,6.03-2.44,6.67-5.55
			C238.86,48.57,238.57,48.6,238.26,48.6z"/>
	</g>
	<g>
		<path class="st1" d="M217.8,53.59c0,0.86-1.19,2.52-2.66,2.52c-1.47,0-2.66-1.65-2.66-2.52c0-0.86,1.19-0.94,2.66-0.94
			C216.61,52.65,217.8,52.72,217.8,53.59z"/>
	</g>
	<g>
		<path class="st2" d="M148.45,194.78c-0.15,0-0.31-0.07-0.4-0.21c-0.16-0.22-0.11-0.54,0.11-0.7c0.15-0.11,14.81-10.95,16.88-24.77
			c0.89-5.94-0.66-11.62-4.6-16.88c-12.99-17.35-37.37-11.95-37.62-11.89c-0.27,0.06-0.54-0.11-0.6-0.38
			c-0.06-0.27,0.11-0.54,0.37-0.6c0.25-0.06,25.26-5.61,38.64,12.27c4.11,5.49,5.72,11.42,4.79,17.64
			c-2.14,14.24-17.13,25.31-17.28,25.42C148.65,194.75,148.55,194.78,148.45,194.78z"/>
	</g>
	<g>
		<path class="st2" d="M292.63,155.8c-25.22,0-44.76-9.3-44.97-9.4c-0.25-0.12-0.35-0.42-0.23-0.67s0.42-0.35,0.67-0.23
			c0.23,0.11,23.04,10.95,51.11,9.08c0.28-0.02,0.51,0.19,0.53,0.47c0.02,0.28-0.19,0.51-0.47,0.53
			C297.01,155.74,294.8,155.8,292.63,155.8z"/>
	</g>
</g>
</svg>
