<?xml version="1.0" encoding="utf-8"?>
<!-- Generator: Adobe Illustrator 24.0.1, SVG Export Plug-In . SVG Version: 6.00 Build 0)  -->
<svg version="1.1" id="Layer_1" xmlns="http://www.w3.org/2000/svg" xmlns:xlink="http://www.w3.org/1999/xlink" x="0px" y="0px"
	 viewBox="0 0 328.54 213.7" style="enable-background:new 0 0 328.54 213.7;" xml:space="preserve">
<style type="text/css">
	.st0{fill:#FEE260;}
	.st1{fill:#C84E44;}
	.st2{fill:#FFFFFF;}
</style>
<g>
	<g>
		<path d="M301.19,7.6c-14.23,12.67-23.36,40.66-16.58,75.79c3.44,17.81-0.32,22.23-3.22,23.19c-9.48-12.96-24.42-22.65-38.58-25.07
			c-34.74-5.92-69.97,12.54-69.97,12.54c-6.12-26.99-25.14-45.3-35.83-53.76c-3.45-2.73-8.57-1-9.62,3.28l-5.76,23.34l-15,1.97
			C93.81,57.79,80.84,55.51,73.01,55.33c-3.88-0.09-6.83,3.5-6,7.3c3.39,15.65,7.37,28.45,7.37,28.45s-14.8,29.01-5.92,40.56
			s22.2,13.03,22.2,13.03s-2.27,12.83-14.21,25.76c-5.4,5.84-9.08,6.61-14.01,10.16c-4.93,3.55-6.91,12.43,10.26,13.42
			c17.17,0.99,26.45-8.68,26.45-8.68c10.85,1.97,16.78-0.2,16.78-0.2s-7.8,7.2-4.84,12.53c2.96,5.33,11.48,5.88,23.09,2.66
			c13.91-3.85,17.47-8.68,28.12-20.53c10.66-11.84,23.88-15,23.88-15c18.55,0.2,28.42-4.74,28.42-4.74
			c-3.16,8.49,2.37,13.82,2.37,13.82s-14.21,2.37-19.14,10.26c-4.93,7.89,2.76,15.79,26.84,9.87c24.08-5.92,37.1-0.79,43.02-9.08
			c5.92-8.29,1.18-13.42,1.18-13.42c21.3-15.19,25.45-33.38,20.46-49.47c0.27-0.12,0.53-0.22,0.81-0.36
			c13.05-6.22,14.09-27.42,11.72-58.21c-2.37-30.79,12.21-40.38,21.19-46.69C337.67,6.49,320.58-9.67,301.19,7.6z"/>
	</g>
	<g>
		<path class="st0" d="M100.31,114.43c0.35,1.49-0.51,3-1.97,3.48c-2.86,0.95-7.72,2.32-11.81,2.32c-6.25,0-11.2-3.47-11.2-9.71
			c0-6.15,4.69-11.06,10.84-11.31C95.55,98.84,99.14,109.4,100.31,114.43z"/>
	</g>
	<g>
		<path class="st0" d="M115.05,114.13c-0.32,1.5,0.57,2.99,2.04,3.44c2.88,0.89,7.77,2.17,11.86,2.08c6.25-0.13,11.13-3.69,11-9.94
			c-0.12-6.15-4.92-10.97-11.06-11.08C119.49,98.45,116.12,109.08,115.05,114.13z"/>
	</g>
	<g>
		<g>
			<circle cx="33.95" cy="177.03" r="21.32"/>
		</g>
	</g>
	<g>
		<g>
			<path d="M6.8,213.7c-2.69,0-4.68-0.09-5.3-0.12c-0.87-0.05-1.54-0.79-1.49-1.66c0.05-0.87,0.78-1.54,1.66-1.49
				c5.79,0.3,21.88,0.23,26.67-3.7c0.09-0.07,0.15-0.13,0.21-0.18c-1.13-0.96-5.86-2.16-8.76-2.89c-6.69-1.69-10.84-2.89-12.08-5.26
				c-0.42-0.8-0.47-1.66-0.15-2.51c2.32-6.18,18.62-5.7,21.87-5.54c0.87,0.04,1.54,0.78,1.5,1.66c-0.04,0.87-0.78,1.56-1.66,1.5
				c-6.91-0.34-17.65,0.54-18.75,3.49c0.49,1.18,6.71,2.75,10.05,3.6c6.78,1.71,10.64,2.81,11.21,5.35
				c0.18,0.79,0.07,1.99-1.43,3.22C25.57,213.07,13.81,213.7,6.8,213.7z"/>
		</g>
	</g>
	<g>
		<path d="M91.37,113.2c-1.68,0-3.05-0.74-3.05-1.65c0-0.91,1.36-1.65,3.05-1.65c0.52,0,1,0.08,1.43,0.2
			c-0.19-4.07-3.54-7.31-7.65-7.31c-4.24,0-7.67,3.44-7.67,7.67c0,4.24,3.44,7.67,7.67,7.67c3.31,0,6.12-2.1,7.2-5.03
			C92.03,113.16,91.71,113.2,91.37,113.2z"/>
	</g>
	<g>
		<path d="M133.17,111.78c-1.68,0-3.05-0.74-3.05-1.65c0-0.91,1.36-1.65,3.05-1.65c0.34,0,0.65,0.04,0.96,0.09
			c-0.73-3.55-3.91-6.19-7.66-6.11c-4.24,0.09-7.6,3.59-7.52,7.83c0.09,4.24,3.59,7.6,7.83,7.52c3.65-0.07,6.64-2.68,7.35-6.11
			C133.82,111.74,133.51,111.78,133.17,111.78z"/>
	</g>
	<g>
		<path class="st1" d="M109.79,118.6c0,0.95-1.31,2.77-2.93,2.77s-2.93-1.82-2.93-2.77c0-0.95,1.31-1.03,2.93-1.03
			S109.79,117.65,109.79,118.6z"/>
	</g>
</g>
</svg>
