<?xml version="1.0" encoding="utf-8"?>
<!-- Generator: Adobe Illustrator 24.0.1, SVG Export Plug-In . SVG Version: 6.00 Build 0)  -->
<svg version="1.1" id="Layer_1" xmlns="http://www.w3.org/2000/svg" xmlns:xlink="http://www.w3.org/1999/xlink" x="0px" y="0px"
	 viewBox="0 0 223.04 182.66" style="enable-background:new 0 0 223.04 182.66;" xml:space="preserve">
<style type="text/css">
	.st0{fill:#FEE260;}
	.st1{fill:#C84E44;}
	.st2{fill:#FFFFFF;}
</style>
<g>
	<g>
		<path d="M22.67,92.79c0,0-10.07-7.07-10.71-19.07c-0.48-8.94,8.36-27.48,8.36-27.48s2.52-20.83,17.12-32.89
			c2.11-1.74,5.28-1.07,6.48,1.38l8.54,17.42c0,0,10.71-3.86,25.71,0.86c0,0,3.65-9.27,8.23-16.44c1.55-2.44,5.05-2.61,6.84-0.34
			c5.04,6.39,14.35,19.42,20.08,34.78c8.14,21.86-6.86,46.29-6.86,46.29s53.14-23.14,80.57-8.57s38.14,64.29,20.14,77.14
			s-36.43,18.3-57.43,16.44c-21-1.86-38.77-10.86-38.77-10.86s-17.8,9-39.66,5.14c-21.86-3.86-21.86-6.86-38.14-3.86
			s-35.14,2.14-33-17.57s15-24.43,15-24.43S14.1,109.08,22.67,92.79z"/>
	</g>
	<g>
		<path class="st0" d="M54.45,62.12c0.33,1.42-0.49,2.85-1.87,3.3c-2.72,0.9-7.33,2.21-11.22,2.21c-5.93,0-10.64-3.29-10.64-9.22
			c0-5.84,4.46-10.51,10.29-10.74C49.93,47.32,53.34,57.34,54.45,62.12z"/>
	</g>
	<g>
		<path class="st0" d="M68.44,61.84c-0.3,1.42,0.55,2.84,1.94,3.27c2.74,0.85,7.37,2.06,11.26,1.98c5.93-0.12,10.57-3.51,10.45-9.44
			c-0.12-5.84-4.67-10.41-10.51-10.53C72.66,46.95,69.46,57.04,68.44,61.84z"/>
	</g>
	<g>
		<path d="M48.55,60.95c-1.6,0-2.89-0.7-2.89-1.57c0-0.87,1.3-1.57,2.89-1.57c0.49,0,0.95,0.07,1.36,0.19
			c-0.18-3.86-3.36-6.94-7.27-6.94c-4.02,0-7.29,3.26-7.29,7.29c0,4.02,3.26,7.29,7.29,7.29c3.14,0,5.81-1.99,6.83-4.78
			C49.18,60.92,48.87,60.95,48.55,60.95z"/>
	</g>
	<g>
		<path d="M85.65,59.6c-1.6,0-2.89-0.7-2.89-1.57s1.3-1.57,2.89-1.57c0.32,0,0.62,0.03,0.91,0.09c-0.7-3.37-3.71-5.88-7.28-5.8
			c-4.02,0.08-7.22,3.41-7.14,7.43s3.41,7.22,7.43,7.14c3.46-0.07,6.31-2.55,6.98-5.8C86.27,59.56,85.97,59.6,85.65,59.6z"/>
	</g>
	<g>
		<path class="st1" d="M64.24,64.81c0,0.9-1.25,2.63-2.79,2.63c-1.54,0-2.79-1.73-2.79-2.63c0-0.9,1.25-0.98,2.79-0.98
			C62.99,63.83,64.24,63.91,64.24,64.81z"/>
	</g>
	<g>
		<path d="M209.38,24.63c0.27-0.05,0.07-0.02,0.06-0.03l-0.23,0.03l-0.56,0.09c-0.4,0.07-0.81,0.17-1.22,0.28
			c-0.83,0.22-1.64,0.49-2.39,0.8c-1.52,0.61-2.79,1.37-3.74,2.17c-0.49,0.39-0.88,0.8-1.23,1.23c-0.36,0.42-0.65,0.87-0.9,1.39
			c-0.53,0.99-0.86,2.28-0.98,3.87c-0.1,1.55-0.02,3,0.43,4.67c0.43,1.65,1.17,3.45,2.2,5.37c2.04,3.84,5.19,8.02,8.48,12.6
			c3.29,4.59,6.84,9.68,9.56,15.73c1.35,3.01,2.48,6.26,3.19,9.65l0.46,2.56l0.31,2.58c0.09,1.63,0.15,3.24,0.21,4.86
			c0.01,6.51-1.23,13.13-3.7,19.25c-1.28,3.05-2.81,5.98-4.68,8.71c-0.94,1.36-1.94,2.69-3.04,3.96c-0.55,0.64-1.12,1.27-1.73,1.88
			c-0.29,0.31-0.63,0.63-0.95,0.94c-0.16,0.15-0.34,0.32-0.53,0.49l-0.69,0.6c-3.17,2.67-7.9,2.27-10.57-0.9
			c-2.67-3.17-2.27-7.9,0.9-10.57c-0.01,0-0.07,0.05-0.02,0.01l0.09-0.1l0.21-0.23c0.15-0.18,0.31-0.34,0.47-0.54
			c0.32-0.38,0.64-0.8,0.96-1.23c0.63-0.85,1.21-1.77,1.76-2.71c1.08-1.89,1.95-3.92,2.64-5.99c1.3-4.18,1.8-8.57,1.46-13.03
			l-0.4-3.34l-0.3-1.48l-0.39-1.47c-0.58-1.94-1.4-3.85-2.44-5.77c-2.08-3.83-5.07-7.64-8.48-11.7c-3.4-4.1-7.29-8.38-10.88-13.96
			c-1.78-2.79-3.47-5.94-4.74-9.51c-1.29-3.54-2.03-7.58-2.09-11.51c-0.08-3.88,0.45-8.1,2-12.2c1.48-4.1,3.99-7.92,6.95-10.94
			c2.97-3.05,6.33-5.37,9.74-7.12c1.72-0.88,3.45-1.63,5.23-2.27c0.89-0.32,1.79-0.61,2.72-0.88c0.47-0.13,0.94-0.26,1.44-0.38
			l0.78-0.18c0.32-0.07,0.46-0.1,1.07-0.2c6.77-0.98,13.05,3.7,14.03,10.47C220.83,17.36,216.14,23.65,209.38,24.63z"/>
	</g>
	<g>
		<path class="st2" d="M45.17,168.51c-0.1,0-0.2-0.03-0.29-0.09c-0.23-0.16-0.28-0.47-0.12-0.7c0.08-0.11,7.8-11.33,0.06-19.07
			c-7.84-7.84-25.47-2.92-25.65-2.87c-0.27,0.07-0.54-0.08-0.62-0.34c-0.08-0.27,0.08-0.54,0.34-0.62
			c0.75-0.21,18.38-5.13,26.63,3.13c8.34,8.34,0.14,20.24,0.06,20.36C45.48,168.43,45.32,168.51,45.17,168.51z"/>
	</g>
	<g>
		<path class="st2" d="M61.13,170.87c-0.09,0-0.18-0.02-0.26-0.08c-0.08-0.05-8.02-5.18-3.09-16.69
			c4.9-11.43,28.1-10.93,29.08-10.91c0.28,0.01,0.49,0.24,0.49,0.51c-0.01,0.27-0.23,0.49-0.5,0.49c-0.02,0-0.16-0.01-0.61-0.01
			c-3.68,0-23.33,0.47-27.54,10.3c-4.59,10.7,2.4,15.26,2.7,15.45c0.23,0.15,0.3,0.46,0.16,0.69
			C61.46,170.78,61.3,170.87,61.13,170.87z"/>
	</g>
</g>
</svg>
