<?xml version="1.0" encoding="utf-8"?>
<!-- Generator: Adobe Illustrator 24.0.1, SVG Export Plug-In . SVG Version: 6.00 Build 0)  -->
<svg version="1.1" id="Layer_1" xmlns="http://www.w3.org/2000/svg" xmlns:xlink="http://www.w3.org/1999/xlink" x="0px" y="0px"
	 viewBox="0 0 187.91 207.14" style="enable-background:new 0 0 187.91 207.14;" xml:space="preserve">
<style type="text/css">
	.st0{fill:#FEE260;}
	.st1{fill:#C84E44;}
	.st2{fill:#FFFFFF;}
</style>
<g>
	<g>
		<g>
			<path d="M177.36,64.4c-0.41-0.04-0.49-0.04-0.69-0.06l-0.46-0.02l-0.83-0.02c-0.54-0.01-1.02,0-1.52,0.01
				c-0.97,0.03-1.92,0.09-2.85,0.19c-1.87,0.19-3.69,0.5-5.49,0.92c-3.6,0.87-7.12,2.17-10.41,4c-3.29,1.81-6.34,4.09-8.96,6.7
				c-2.63,2.61-4.84,5.54-6.62,8.56c-3.58,6.08-5.56,12.47-6.66,18.62c-1.11,6.3-1.37,11.87-1.54,17.56
				c-0.15,5.64-0.04,11.17,0.01,16.43c0.04,5.26,0.01,10.31-0.65,14.65c-0.31,2.05-0.76,3.9-1.39,5.51
				c-2.85-35.31-28.41-72.04-28.41-72.04c23.69-15.55,24.1-28.15,11.84-46.93c-8.5-13.03-15.82-27.79-19.5-35.62
				c-1.43-3.03-5.42-3.85-7.85-1.55c-8.35,7.89-9.81,18.12-9.81,18.12c-12.25-4.76-25.32-0.52-25.32-0.52L33,1.7
				c-2.4-2.4-6.5-1.76-7.97,1.3c-6.23,12.93-3.78,29.37-3.78,29.37S10.63,43.39,6.13,58.09C1.64,72.8,25.33,85.42,25.33,85.42
				s-25.8,53.87-25.32,80.42c0.34,19.04,10.29,27.64,28.55,31.02c2.27,4.01,5.67,8.31,10.2,9.44c8.06,2.01,16.72,0.71,16.86-7.55
				c2.77-0.01,5.64-0.05,8.61-0.13c0.83,3.38,3.15,8.21,9.63,8.27c6.68,0.06,12.77-3.04,17.18-9.59
				c20.56-1.81,31.52-5.9,35.96-16.92c0.72-0.29,1.43-0.6,2.15-0.94c3.02-1.41,6.04-3.33,8.71-5.85c2.68-2.5,4.9-5.59,6.48-8.78
				c1.59-3.2,2.6-6.45,3.31-9.55c1.38-6.23,1.74-11.97,2.11-17.45c0.34-5.48,0.61-10.71,1.11-15.81c0.49-5.03,1.19-10.21,2.25-14.44
				c1.07-4.36,2.72-8.28,4.85-11.33c2.12-3.08,4.69-5.21,7.64-6.55c1.47-0.68,3.08-1.13,4.73-1.4c0.83-0.13,1.67-0.2,2.48-0.22
				c0.41-0.02,0.8,0,1.17,0.01c0.17,0.01,0.37,0.02,0.5,0.04c0.08,0.01,0.15,0.02,0.18,0.02c0.02,0,0.06,0.01,0.04,0.01c0,0,0,0,0,0
				c6.49,0.67,12.33-3.98,13.1-10.48C188.6,71.12,183.92,65.17,177.36,64.4z"/>
		</g>
		<g>
			<path d="M174.73,88.16c-0.06-0.01-0.12-0.01-0.19-0.01C174.78,88.17,174.7,88.16,174.73,88.16z"/>
		</g>
	</g>
	<g>
		<path class="st0" d="M50.6,50.84c0.37,1.57-0.54,3.16-2.07,3.67c-3.02,1-8.13,2.45-12.44,2.45c-6.58,0-11.8-3.65-11.8-10.23
			c0-6.48,4.94-11.66,11.42-11.91C45.59,34.42,49.37,45.54,50.6,50.84z"/>
	</g>
	<g>
		<path class="st0" d="M66.13,50.53c-0.33,1.58,0.6,3.15,2.15,3.62c3.04,0.94,8.18,2.28,12.49,2.2c6.58-0.13,11.72-3.89,11.59-10.47
			C92.23,39.4,87.18,34.32,80.7,34.2C70.81,34.01,67.26,45.2,66.13,50.53z"/>
	</g>
	<g>
		<path d="M44.05,49.54c-1.77,0-3.21-0.78-3.21-1.74c0-0.96,1.44-1.74,3.21-1.74c0.55,0,1.05,0.08,1.5,0.21
			c-0.2-4.29-3.73-7.7-8.06-7.7c-4.46,0-8.08,3.62-8.08,8.08c0,4.46,3.62,8.08,8.08,8.08c3.48,0,6.44-2.21,7.58-5.3
			C44.75,49.5,44.41,49.54,44.05,49.54z"/>
	</g>
	<g>
		<path d="M85.22,48.04c-1.77,0-3.21-0.78-3.21-1.74c0-0.96,1.44-1.74,3.21-1.74c0.35,0,0.69,0.04,1.01,0.1
			c-0.77-3.74-4.12-6.52-8.07-6.44c-4.46,0.09-8.01,3.78-7.92,8.24s3.78,8.01,8.24,7.92c3.84-0.08,7-2.83,7.75-6.44
			C85.91,48,85.57,48.04,85.22,48.04z"/>
	</g>
	<g>
		<path class="st1" d="M61.46,53.83c0,1-1.38,2.92-3.09,2.92s-3.09-1.92-3.09-2.92s1.38-1.09,3.09-1.09S61.46,52.83,61.46,53.83z"/>
	</g>
	<g>
		<path class="st2" d="M65.5,194.47c-0.03,0-0.06,0-0.09-0.01c-0.27-0.05-0.45-0.31-0.4-0.58c2.6-14.11,2.32-31.8,0.96-42.27
			c-1.36-10.49-8.48-11.68-10.28-11.82c-0.65,3.32-4.78,26.26-0.63,54.11c0.04,0.27-0.15,0.53-0.42,0.57
			c-0.27,0.04-0.53-0.15-0.57-0.42c-4.5-30.17,0.67-54.63,0.72-54.88l0.08-0.39l0.4,0c0.13,0.02,10.04,0.02,11.68,12.7
			c1.37,10.54,1.65,28.37-0.97,42.58C65.94,194.3,65.73,194.47,65.5,194.47z"/>
	</g>
	<g>
		<path class="st2" d="M92.98,194.47c-0.08,0-0.15-0.02-0.22-0.05c-0.25-0.12-0.35-0.42-0.22-0.67c4.89-9.78,6.79-19.7,6.81-19.8
			c0.05-0.27,0.31-0.45,0.58-0.4c0.27,0.05,0.45,0.31,0.4,0.58c-0.02,0.1-1.95,10.15-6.9,20.06
			C93.34,194.37,93.16,194.47,92.98,194.47z"/>
	</g>
	<g>
		<path class="st2" d="M28.1,194.47c-0.2,0-0.39-0.12-0.46-0.31c-4.27-10.62-4.75-21.96-4.75-22.08c-0.01-0.28,0.2-0.51,0.48-0.52
			c0.27-0.02,0.51,0.2,0.52,0.48c0,0.11,0.48,11.29,4.68,21.74c0.1,0.26-0.02,0.55-0.28,0.65C28.23,194.46,28.16,194.47,28.1,194.47
			z"/>
	</g>
</g>
</svg>
