<?xml version="1.0" encoding="utf-8"?>
<!-- Generator: Adobe Illustrator 24.0.1, SVG Export Plug-In . SVG Version: 6.00 Build 0)  -->
<svg version="1.1" id="Layer_1" xmlns="http://www.w3.org/2000/svg" xmlns:xlink="http://www.w3.org/1999/xlink" x="0px" y="0px"
	 viewBox="0 0 229.9 288.72" style="enable-background:new 0 0 229.9 288.72;" xml:space="preserve">
<style type="text/css">
	.st0{fill:#FEE260;}
	.st1{fill:#C84E44;}
	.st2{fill:#FFFFFF;}
</style>
<g>
	<g>
		<path d="M82.48,70.33c0,0-7.68-23.72,7.68-46.69c0,0-0.29-10.21,8.64-22.24c1.61-2.16,4.96-1.75,6,0.74l6.93,16.63
			c0,0,10.6-2.19,25.23,0.73c0,0,3.49-10.19,14.63-15.5c2.13-1.02,4.65,0.34,4.95,2.69l3.21,24.6c0,0,10.31,15.94,9.08,27.56
			c-1.16,10.99-11.03,20.99-11.03,20.99s37.17-31.93,56.92-36.56s18.53,12.92,6.09,20.96s-25.84,19.5-32.91,37.3
			c-7.07,17.79-5.61,16.7-9.26,73.01c-3.66,56.31-5.12,59.23-5.12,59.23s3.29,28.52,9.14,36.56s0,16.45-12.8,16.09
			s-19.74-19.01-24.86-44.97c0,0-18.65-8.41-31.81-5.12c-13.16,3.29-13.16,3.29-13.16,3.29s-12.07,35.47-19.38,44.24
			c-7.31,8.78-24.86,4.75-24.86-4.75c0-9.51,3.66-4.75,9.51-26.69s5.61-81.9,7.07-112.62s-6.34-49.73-17.79-59.97
			S26.29,62.1,28.73,53.41s15.19-7.29,24.62-3.56C62.37,53.41,72.62,60.48,82.48,70.33z"/>
	</g>
	<g>
		<path class="st0" d="M123.18,44.95c0.32,1.37-0.47,2.74-1.8,3.19c-2.62,0.87-7.07,2.13-10.81,2.13c-5.72,0-10.26-3.17-10.26-8.89
			c0-5.63,4.3-10.13,9.92-10.35C118.82,30.68,122.1,40.35,123.18,44.95z"/>
	</g>
	<g>
		<path class="st0" d="M136.67,44.68c-0.29,1.37,0.53,2.73,1.87,3.15c2.64,0.82,7.11,1.98,10.86,1.91
			c5.72-0.12,10.19-3.38,10.07-9.1c-0.11-5.63-4.5-10.04-10.13-10.15C140.74,30.33,137.65,40.05,136.67,44.68z"/>
	</g>
	<g>
		<path d="M117.49,43.83c-1.54,0-2.79-0.68-2.79-1.51c0-0.83,1.25-1.51,2.79-1.51c0.48,0,0.92,0.07,1.31,0.18
			c-0.17-3.72-3.24-6.69-7.01-6.69c-3.88,0-7.02,3.14-7.02,7.02c0,3.88,3.14,7.02,7.02,7.02c3.03,0,5.6-1.92,6.59-4.6
			C118.09,43.79,117.8,43.83,117.49,43.83z"/>
	</g>
	<g>
		<path d="M153.26,42.52c-1.54,0-2.79-0.68-2.79-1.51c0-0.83,1.25-1.51,2.79-1.51c0.31,0,0.6,0.03,0.88,0.08
			c-0.67-3.25-3.58-5.67-7.02-5.6c-3.88,0.08-6.96,3.29-6.88,7.17s3.29,6.96,7.17,6.88c3.34-0.07,6.08-2.46,6.73-5.6
			C153.86,42.49,153.57,42.52,153.26,42.52z"/>
	</g>
	<g>
		<path class="st1" d="M132.61,47.55c0,0.87-1.2,2.54-2.69,2.54c-1.48,0-2.69-1.67-2.69-2.54s1.2-0.95,2.69-0.95
			C131.41,46.6,132.61,46.68,132.61,47.55z"/>
	</g>
	<g>
		<path d="M14.37,109.24l0.79,0.14l0.46,0.1l0.87,0.21l1.46,0.43c0.94,0.3,1.8,0.62,2.66,0.96c0.82,0.36,1.66,0.71,2.46,1.09
			l2.33,1.22c1.47,0.89,2.97,1.77,4.3,2.8c0.67,0.51,1.36,1,2.01,1.53l1.87,1.65c4.91,4.48,8.62,9.79,11.34,15.23
			c2.72,5.45,4.63,11.06,5.78,16.6l0.46,2.08c0.15,0.69,0.31,1.42,0.4,1.96l0.65,3.54c0.42,2.37,0.92,4.65,1.39,6.97
			c2.02,9.11,4.44,17.76,8.78,24.12c2.15,3.22,4.82,6.01,8.11,8.52c3.27,2.5,7.1,4.7,11.18,6.72l0.17,0.08
			c4.22,2.09,5.95,7.21,3.85,11.44c-2,4.03-6.79,5.78-10.89,4.1c-4.93-2.03-9.9-4.39-14.72-7.55c-4.81-3.14-9.41-7.23-13.09-11.98
			c-3.69-4.74-6.51-9.95-8.63-15.05c-2.14-5.11-3.8-10.18-5.26-15.18c-0.69-2.48-1.41-4.98-2.03-7.44l-0.94-3.7
			c-0.16-0.66-0.31-1.13-0.46-1.64l-0.45-1.51c-1.12-4.07-2.77-7.77-4.69-11.02c-1.92-3.26-4.24-5.98-6.81-7.97l-0.96-0.74
			c-0.33-0.22-0.67-0.41-0.99-0.63c-0.64-0.46-1.34-0.74-1.99-1.1c-0.34-0.13-0.67-0.27-0.99-0.42l-0.96-0.33
			c-0.29-0.08-0.6-0.16-0.85-0.22l-0.32-0.06c-0.01,0.01-0.02,0.01-0.03,0.01c0,0-0.03,0,0,0c0.11,0.02,0.22,0.04,0.33,0.06
			C4,133.33-0.83,126.95,0.12,120.03C1.07,113.12,7.45,108.28,14.37,109.24z"/>
	</g>
</g>
</svg>
