<svg xmlns="http://www.w3.org/2000/svg" xmlns:xlink="http://www.w3.org/1999/xlink" width="1000" zoomAndPan="magnify" viewBox="0 0 750 749.999995" height="1000" preserveAspectRatio="xMidYMid meet" version="1.0"><defs><clipPath id="be8baa6122"><path d="M 133.910156 75 L 616.160156 75 L 616.160156 675 L 133.910156 675 Z M 133.910156 75 " clip-rule="nonzero"/></clipPath><clipPath id="b6ddddf6e8"><path d="M 0.910156 0 L 483.078125 0 L 483.078125 600 L 0.910156 600 Z M 0.910156 0 " clip-rule="nonzero"/></clipPath><clipPath id="62dc0c2a51"><rect x="0" width="484" y="0" height="600"/></clipPath></defs><g clip-path="url(#be8baa6122)"><g transform="matrix(1, 0, 0, 1, 133, 75)"><g clip-path="url(#62dc0c2a51)"><path fill="#000000" d="M 40.425781 285.121094 C 40.527344 285.097656 40.625 285.074219 40.722656 285.046875 C 40.527344 285.097656 40.453125 285.121094 40.425781 285.121094 Z M 40.425781 285.121094 " fill-opacity="1" fill-rule="nonzero"/><g clip-path="url(#b6ddddf6e8)"><path fill="#000000" d="M 21.789062 227.445312 C 23.234375 227.003906 23.578125 226.933594 24.363281 226.734375 L 26.273438 226.269531 C 27.496094 226 28.671875 225.757812 29.847656 225.535156 C 32.175781 225.09375 34.476562 224.777344 36.777344 224.484375 C 41.382812 223.945312 46.011719 223.699219 50.714844 223.746094 C 60.117188 223.847656 70.011719 225.265625 79.859375 228.71875 C 89.652344 232.097656 99.328125 237.757812 107.042969 245.105469 C 114.902344 252.402344 120.683594 261.070312 124.75 269.667969 C 128.886719 278.363281 131.703125 288.011719 132.734375 297.195312 C 133.835938 306.40625 133.589844 315.148438 132.734375 323.203125 C 130.945312 339.367188 127.101562 353.011719 124.113281 365.695312 C 121.074219 378.332031 118.675781 389.941406 118.285156 400.621094 C 118.085938 405.960938 118.382812 411.027344 119.214844 415.925781 L 119.972656 419.550781 L 120.953125 423.128906 L 123.71875 430.890625 C 127.101562 439.21875 131.703125 446.835938 137.363281 453.570312 C 136.996094 438.1875 137.632812 421.070312 139.910156 402.578125 C 149.363281 325.949219 203.683594 212.335938 203.683594 212.335938 C 203.683594 212.335938 184.800781 167.027344 197.390625 103.03125 C 209.976562 39.039062 252.175781 -5.730469 261.628906 0.585938 C 271.082031 6.90625 275.269531 56.183594 275.269531 56.183594 C 301.5 49.886719 316.195312 55.128906 316.195312 55.128906 C 340.339844 4.75 365.542969 -5.730469 373.941406 3.746094 C 382.34375 13.226562 383.398438 71.929688 383.398438 71.929688 C 383.398438 71.929688 419.175781 109.546875 429.5625 143.957031 C 444.257812 192.667969 405.414062 213.632812 405.414062 213.632812 C 405.414062 213.632812 441.097656 203.125 471.539062 261.90625 C 501.980469 320.683594 467.351562 365.820312 423.265625 364.765625 C 379.183594 363.710938 390.71875 389.96875 390.71875 389.96875 C 390.71875 389.96875 435.855469 374.21875 452.289062 434.050781 C 468.722656 493.882812 423.242188 532.722656 423.242188 532.722656 C 423.242188 532.722656 427.429688 532.722656 452.289062 542.175781 C 477.121094 551.628906 491.472656 575.753906 452.289062 585.699219 C 413.105469 595.640625 352.929688 577.859375 352.929688 577.859375 L 285.457031 576.488281 C 285.457031 576.488281 296.527344 596.496094 263.464844 599.65625 C 230.402344 602.816406 206.746094 585.257812 206.746094 585.257812 C 197.460938 584.667969 187.984375 583.347656 178.703125 581.042969 C 128.324219 568.457031 149.3125 532.773438 149.3125 532.773438 C 149.3125 532.773438 145.785156 522.78125 142.554688 505.269531 C 139.566406 503.921875 136.628906 502.476562 133.785156 500.910156 C 126.707031 496.941406 120.144531 492.214844 114.023438 486.925781 C 101.925781 476.199219 91.980469 463.023438 84.878906 448.746094 C 83.238281 445.144531 81.621094 441.542969 80.027344 437.871094 L 77.875 431.871094 L 76.085938 425.746094 C 73.957031 417.542969 72.878906 409.191406 72.558594 401.109375 C 71.921875 384.871094 74.125 369.859375 76.332031 356.195312 C 78.558594 342.554688 80.886719 329.964844 81.15625 319.3125 C 81.300781 313.996094 80.960938 309.246094 80.101562 305.15625 C 79.269531 301.015625 77.875 297.734375 75.964844 294.453125 C 73.980469 291.074219 71.824219 288.625 69.597656 287.03125 C 68.492188 286.175781 67.367188 285.515625 66.117188 284.976562 C 64.894531 284.410156 63.570312 283.945312 62.078125 283.601562 C 59.136719 282.894531 55.515625 282.625 51.523438 282.941406 C 49.539062 283.089844 47.457031 283.382812 45.398438 283.800781 C 44.371094 284.019531 43.367188 284.265625 42.410156 284.535156 L 41.089844 284.925781 L 40.550781 285.121094 C 40.527344 285.144531 40.328125 285.21875 40.402344 285.195312 C 24.582031 290.214844 7.632812 281.59375 2.441406 265.773438 C -2.773438 249.804688 5.894531 232.6875 21.789062 227.445312 Z M 21.789062 227.445312 " fill-opacity="1" fill-rule="nonzero"/></g><path fill="#ffffff" d="M 426.425781 314.046875 C 427.015625 314.046875 427.527344 313.628906 427.625 313.015625 C 430.296875 297.023438 415.578125 271.75 414.964844 270.671875 L 414.597656 270.035156 L 413.863281 270.058594 C 402.375 270.574219 393.046875 267.683594 386.777344 261.683594 C 381.242188 256.394531 378.328125 248.828125 378.328125 239.839844 C 378.328125 221.691406 397.503906 218.089844 398.3125 217.945312 C 398.972656 217.820312 399.414062 217.183594 399.316406 216.523438 C 399.191406 215.863281 398.554688 215.421875 397.894531 215.519531 C 397.675781 215.566406 375.878906 219.609375 375.878906 239.8125 C 375.878906 249.488281 379.0625 257.667969 385.085938 263.421875 C 391.699219 269.742188 401.421875 272.875 413.226562 272.484375 C 415.480469 276.5 427.527344 298.761719 425.226562 312.550781 C 425.105469 313.210938 425.570312 313.847656 426.230469 313.972656 C 426.28125 314.046875 426.351562 314.046875 426.425781 314.046875 Z M 426.425781 314.046875 " fill-opacity="1" fill-rule="nonzero"/><path fill="#ffffff" d="M 345.335938 449.699219 C 345.949219 449.699219 346.464844 449.257812 346.539062 448.648438 C 352.660156 405.027344 383.445312 394.644531 383.738281 394.546875 C 384.375 394.351562 384.742188 393.640625 384.523438 393.003906 C 384.300781 392.367188 383.617188 392.023438 382.980469 392.21875 C 382.660156 392.316406 350.433594 403.214844 344.089844 448.328125 C 343.992188 448.988281 344.457031 449.625 345.140625 449.699219 C 345.214844 449.699219 345.289062 449.699219 345.335938 449.699219 Z M 345.335938 449.699219 " fill-opacity="1" fill-rule="nonzero"/><path fill="#c1ff72" d="M 340.683594 139.769531 C 339.875 143.246094 341.882812 146.75 345.265625 147.851562 C 351.925781 150.054688 363.214844 153.261719 372.742188 153.261719 C 387.265625 153.261719 398.800781 145.207031 398.800781 130.683594 C 398.800781 116.378906 387.878906 104.941406 373.601562 104.378906 C 351.753906 103.523438 343.425781 128.0625 340.683594 139.769531 Z M 340.683594 139.769531 " fill-opacity="1" fill-rule="nonzero"/><path fill="#c1ff72" d="M 306.421875 139.082031 C 307.15625 142.5625 305.074219 146.039062 301.671875 147.089844 C 294.960938 149.171875 283.621094 152.136719 274.09375 151.941406 C 259.570312 151.648438 248.207031 143.34375 248.5 128.820312 C 248.796875 114.519531 259.9375 103.328125 274.242188 103.03125 C 296.085938 102.617188 303.925781 127.328125 306.421875 139.082031 Z M 306.421875 139.082031 " fill-opacity="1" fill-rule="nonzero"/><path fill="#000000" d="M 356.53125 143.417969 C 360.449219 143.417969 363.609375 141.703125 363.609375 139.574219 C 363.609375 137.441406 360.425781 135.726562 356.53125 135.726562 C 355.328125 135.726562 354.203125 135.898438 353.199219 136.191406 C 353.640625 126.738281 361.429688 119.195312 371.003906 119.195312 C 380.847656 119.195312 388.859375 127.179688 388.859375 137.050781 C 388.859375 146.894531 380.875 154.902344 371.003906 154.902344 C 363.3125 154.902344 356.773438 150.03125 354.277344 143.199219 C 354.988281 143.320312 355.722656 143.417969 356.53125 143.417969 Z M 356.53125 143.417969 " fill-opacity="1" fill-rule="nonzero"/><path fill="#000000" d="M 267.800781 139.253906 C 271.71875 139.253906 274.878906 137.539062 274.878906 135.410156 C 274.878906 133.277344 271.695312 131.566406 267.800781 131.566406 C 267.015625 131.566406 266.28125 131.636719 265.570312 131.785156 C 267.285156 123.53125 274.65625 117.382812 283.402344 117.582031 C 293.246094 117.777344 301.082031 125.933594 300.886719 135.777344 C 300.691406 145.621094 292.535156 153.460938 282.691406 153.261719 C 274.214844 153.09375 267.238281 147.019531 265.597656 139.058594 C 266.28125 139.179688 267.039062 139.253906 267.800781 139.253906 Z M 267.800781 139.253906 " fill-opacity="1" fill-rule="nonzero"/><path fill="#c4748c" d="M 316.707031 146.355469 C 316.707031 148.5625 319.769531 152.796875 323.542969 152.796875 C 327.3125 152.796875 330.375 148.5625 330.375 146.355469 C 330.375 144.152344 327.3125 143.957031 323.542969 143.957031 C 319.769531 143.957031 316.707031 144.152344 316.707031 146.355469 Z M 316.707031 146.355469 " fill-opacity="1" fill-rule="nonzero"/><path fill="#ffffff" d="M 278.40625 565.417969 C 278.476562 565.417969 278.550781 565.417969 278.625 565.394531 C 279.285156 565.273438 279.726562 564.636719 279.605469 563.949219 C 279.53125 563.582031 272.527344 526.257812 271.742188 459.472656 C 270.960938 392.636719 274.878906 353.71875 274.902344 353.328125 C 274.976562 352.667969 274.484375 352.054688 273.800781 351.980469 C 273.164062 351.933594 272.527344 352.398438 272.453125 353.082031 C 272.402344 353.476562 268.484375 392.515625 269.269531 459.496094 C 270.054688 526.527344 277.105469 564.046875 277.179688 564.414062 C 277.328125 565.027344 277.839844 565.417969 278.40625 565.417969 Z M 278.40625 565.417969 " fill-opacity="1" fill-rule="nonzero"/><path fill="#ffffff" d="M 206.007812 574.089844 C 206.109375 574.089844 206.179688 574.089844 206.277344 574.0625 C 206.941406 573.917969 207.355469 573.257812 207.210938 572.59375 C 199.445312 536.886719 194.695312 464.074219 194.644531 463.367188 C 194.597656 462.679688 193.984375 462.191406 193.347656 462.214844 C 192.664062 462.265625 192.171875 462.851562 192.195312 463.511719 C 192.246094 464.246094 197.023438 537.230469 204.808594 573.109375 C 204.933594 573.695312 205.445312 574.089844 206.007812 574.089844 Z M 206.007812 574.089844 " fill-opacity="1" fill-rule="nonzero"/></g></g></g></svg>