<svg xmlns="http://www.w3.org/2000/svg" xmlns:xlink="http://www.w3.org/1999/xlink" width="1000" zoomAndPan="magnify" viewBox="0 0 750 749.999995" height="1000" preserveAspectRatio="xMidYMid meet" version="1.0"><defs><clipPath id="9f7f859684"><path d="M 80.453125 318 L 258 318 L 258 579 L 80.453125 579 Z M 80.453125 318 " clip-rule="nonzero"/></clipPath></defs><path fill="#000000" d="M 428.394531 227.992188 C 428.394531 227.992188 440.785156 174.15625 455.40625 144.867188 C 468.273438 119.109375 505.328125 89.050781 534.980469 76.203125 C 540.921875 73.632812 547.617188 77.867188 547.960938 84.359375 C 548.507812 94.765625 547.914062 109.339844 541.855469 118.292969 C 541.855469 118.292969 562.351562 123.664062 577.476562 133.914062 C 577.476562 133.914062 592.507812 119.929688 616.078125 113.851562 C 622.589844 112.164062 628.738281 117.652344 627.738281 124.304688 L 621.882812 162.699219 C 621.882812 162.699219 631.65625 214.714844 626.757812 236.285156 C 621.882812 257.851562 601.386719 266.164062 567.226562 276.410156 C 567.226562 276.410156 570.390625 326.011719 539.648438 356.007812 C 539.648438 356.007812 575.949219 350.722656 602.527344 356.007812 C 635.707031 362.589844 653.128906 376.9375 656.363281 396.453125 C 660.328125 420.207031 631.152344 422.597656 619.449219 410.597656 C 605.328125 396.15625 569.777344 402.761719 543.996094 411.824219 C 506.351562 425.058594 486.21875 427.652344 486.21875 427.652344 C 486.21875 427.652344 476.949219 473.066406 440.832031 497.457031 C 404.710938 521.847656 402.023438 552.363281 402.023438 552.363281 C 402.023438 552.363281 424.046875 568.464844 452.035156 576.027344 C 487.652344 585.660156 504.507812 600.917969 497.175781 626.289062 C 490.84375 648.199219 464.585938 646.96875 454.5625 634.921875 C 451.191406 630.890625 443.039062 625.242188 437.777344 624.945312 C 416.28125 623.667969 363.445312 619.273438 315.871094 605.3125 C 254.378906 587.253906 172.257812 536.992188 205.507812 405.949219 C 238.757812 274.90625 428.394531 227.992188 428.394531 227.992188 Z M 428.394531 227.992188 " fill-opacity="1" fill-rule="nonzero"/><path fill="#000000" d="M 227.664062 530.636719 C 227.664062 530.636719 286.71875 606.589844 350.78125 635.375 C 362.875 640.820312 372.804688 649.949219 379.273438 661.542969 C 382.234375 666.847656 386.855469 671.746094 393.984375 673.636719 C 412.523438 678.507812 443.269531 665.347656 413.503906 616.039062 C 383.738281 566.757812 323.226562 555.53125 323.226562 555.53125 Z M 227.664062 530.636719 " fill-opacity="1" fill-rule="nonzero"/><path fill="#000000" d="M 539.304688 325.785156 C 539.304688 325.785156 599.179688 293.832031 639.601562 297.976562 C 686.085938 302.738281 677.65625 339.335938 665.222656 344.824219 C 652.789062 350.3125 641.789062 336.761719 621.292969 346.644531 C 600.796875 356.53125 590.546875 362.382812 590.546875 362.382812 L 519.539062 372.996094 Z M 539.304688 325.785156 " fill-opacity="1" fill-rule="nonzero"/><path fill="#c1ff72" d="M 536.960938 183.765625 C 536.960938 186.679688 534.707031 189.074219 531.789062 189.347656 C 526.074219 189.847656 516.507812 190.257812 508.949219 188.457031 C 497.402344 185.726562 489.773438 177.140625 492.503906 165.59375 C 495.191406 154.226562 506.03125 147.191406 517.488281 149.445312 C 534.980469 152.886719 536.984375 173.949219 536.960938 183.765625 Z M 536.960938 183.765625 " fill-opacity="1" fill-rule="nonzero"/><path fill="#c1ff72" d="M 564.3125 189.6875 C 563.058594 192.328125 564.0625 195.449219 566.566406 196.929688 C 571.507812 199.84375 579.957031 204.332031 587.5625 205.972656 C 599.15625 208.476562 609.746094 204.035156 612.25 192.421875 C 614.710938 181.011719 607.96875 169.988281 596.652344 167.097656 C 579.410156 162.65625 568.503906 180.804688 564.3125 189.6875 Z M 564.3125 189.6875 " fill-opacity="1" fill-rule="nonzero"/><path fill="#000000" d="M 526.003906 178.777344 C 522.886719 178.050781 520.699219 176.070312 521.109375 174.382812 C 521.519531 172.699219 524.34375 171.925781 527.464844 172.675781 C 528.417969 172.902344 529.285156 173.246094 530.015625 173.675781 C 531.449219 166.070312 526.667969 158.625 519.082031 156.824219 C 511.25 154.957031 503.390625 159.808594 501.546875 167.640625 C 499.679688 175.476562 504.53125 183.332031 512.363281 185.179688 C 518.46875 186.636719 524.59375 183.996094 527.875 179.03125 C 527.234375 178.984375 526.621094 178.914062 526.003906 178.777344 Z M 526.003906 178.777344 " fill-opacity="1" fill-rule="nonzero"/><path fill="#000000" d="M 598.835938 193.261719 C 595.71875 192.535156 593.53125 190.554688 593.941406 188.867188 C 594.351562 187.183594 597.175781 186.410156 600.292969 187.160156 C 600.910156 187.296875 601.480469 187.523438 602.027344 187.75 C 602.230469 180.875 597.515625 174.609375 590.546875 173.109375 C 582.691406 171.398438 574.925781 176.410156 573.214844 184.289062 C 571.507812 192.148438 576.519531 199.914062 584.398438 201.621094 C 591.164062 203.078125 597.859375 199.570312 600.660156 193.535156 C 600.066406 193.492188 599.476562 193.421875 598.835938 193.261719 Z M 598.835938 193.261719 " fill-opacity="1" fill-rule="nonzero"/><path fill="#c4748c" d="M 554.769531 193.535156 C 554.359375 195.289062 551.125 198.089844 548.140625 197.386719 C 545.160156 196.679688 543.519531 192.738281 543.929688 190.964844 C 544.339844 189.210938 546.796875 189.621094 549.804688 190.347656 C 552.8125 191.078125 555.179688 191.78125 554.769531 193.535156 Z M 554.769531 193.535156 " fill-opacity="1" fill-rule="nonzero"/><path fill="#ffffff" d="M 535.796875 357.851562 L 538.894531 355.117188 C 549.03125 346.214844 556.316406 325.011719 556.386719 324.804688 C 556.589844 324.214844 557.25 323.894531 557.820312 324.101562 C 558.414062 324.304688 558.730469 324.941406 558.527344 325.535156 C 558.253906 326.355469 552.105469 344.230469 542.882812 354.34375 C 550.144531 353.433594 568.660156 351.816406 597.3125 353.933594 C 597.949219 353.980469 598.40625 354.527344 598.359375 355.164062 C 598.3125 355.800781 597.742188 356.257812 597.128906 356.210938 C 559.9375 353.480469 540.011719 357.054688 539.828125 357.101562 Z M 535.796875 357.851562 " fill-opacity="1" fill-rule="nonzero"/><path fill="#ffffff" d="M 393.414062 549.585938 C 393.234375 549.585938 393.074219 549.539062 392.914062 549.472656 L 378.886719 542.457031 L 379.296875 541.476562 C 397.171875 497.84375 375.789062 454.230469 375.582031 453.796875 C 375.308594 453.230469 375.539062 452.546875 376.085938 452.273438 C 376.632812 452 377.335938 452.226562 377.609375 452.773438 C 377.839844 453.207031 399.359375 497.089844 381.800781 541.363281 L 393.9375 547.421875 C 394.507812 547.695312 394.734375 548.378906 394.441406 548.949219 C 394.234375 549.359375 393.824219 549.585938 393.414062 549.585938 Z M 393.414062 549.585938 " fill-opacity="1" fill-rule="nonzero"/><path fill="#ffffff" d="M 473.054688 424.417969 C 472.964844 424.417969 472.898438 424.417969 472.804688 424.398438 C 433.769531 415.605469 409.882812 379.371094 409.628906 379.007812 C 409.289062 378.484375 409.449219 377.777344 409.972656 377.4375 C 410.496094 377.09375 411.203125 377.230469 411.542969 377.777344 C 411.769531 378.144531 435.183594 413.601562 473.308594 422.1875 C 473.921875 422.324219 474.308594 422.9375 474.171875 423.554688 C 474.035156 424.054688 473.578125 424.417969 473.054688 424.417969 Z M 473.054688 424.417969 " fill-opacity="1" fill-rule="nonzero"/><g clip-path="url(#9f7f859684)"><path fill="#000000" d="M 255.425781 525.808594 L 254.539062 527.632812 L 253.789062 529.089844 L 252.285156 531.84375 C 251.28125 533.621094 250.210938 535.351562 249.117188 537.058594 C 246.933594 540.453125 244.542969 543.710938 241.945312 546.851562 C 236.777344 553.136719 230.671875 558.96875 223.613281 563.980469 C 220.058594 566.460938 216.257812 568.691406 212.246094 570.652344 C 208.195312 572.566406 203.980469 574.183594 199.585938 575.410156 C 190.816406 577.824219 181.546875 578.621094 172.6875 577.917969 C 168.226562 577.53125 164.011719 576.847656 159.753906 575.933594 C 157.589844 575.390625 155.449219 574.84375 153.285156 574.226562 C 151.121094 573.476562 148.957031 572.679688 146.796875 571.859375 C 138.164062 568.304688 129.644531 562.65625 122.835938 555.300781 L 120.332031 552.5 L 119.101562 551.066406 L 118.03125 549.5625 C 116.621094 547.535156 115.230469 545.488281 113.886719 543.390625 C 112.75 541.273438 111.675781 539.109375 110.605469 536.945312 C 110.105469 535.875 109.492188 534.761719 109.128906 533.691406 L 107.964844 530.433594 C 107.238281 528.269531 106.394531 526.039062 105.824219 523.875 L 104.390625 517.40625 L 103.707031 514.148438 C 103.546875 513.078125 103.433594 512.054688 103.320312 511.007812 L 102.613281 504.699219 C 101.316406 488.027344 103.207031 472.722656 105.871094 457.988281 L 108.058594 447.078125 C 108.464844 444.4375 108.875 441.820312 109.355469 439.222656 C 109.71875 436.605469 109.71875 433.984375 109.96875 431.367188 C 110.128906 430.066406 110.039062 428.746094 109.992188 427.449219 L 109.902344 423.554688 C 109.355469 413.191406 107.101562 402.921875 102.976562 393.171875 C 101.019531 388.277344 98.535156 383.585938 95.871094 379.054688 L 93.777344 375.75 L 91.566406 372.585938 C 90.816406 371.605469 90.066406 370.582031 89.335938 369.671875 L 88.265625 368.371094 L 87.808594 367.894531 L 87.605469 367.667969 L 87.695312 367.804688 C 77.015625 355.503906 78.3125 336.855469 90.613281 326.171875 C 102.910156 315.492188 121.5625 316.789062 132.242188 329.085938 L 133.152344 330.203125 L 133.746094 330.976562 L 134.863281 332.480469 L 136.796875 335.257812 C 138.027344 337.082031 139.164062 338.878906 140.304688 340.679688 C 141.375 342.480469 142.445312 344.277344 143.46875 346.101562 L 146.363281 351.589844 C 150.007812 358.988281 153.195312 366.574219 155.675781 374.429688 C 160.800781 390.054688 163.191406 406.792969 162.714844 423.394531 L 162.371094 429.613281 C 162.257812 431.683594 162.167969 433.757812 161.804688 435.808594 C 161.164062 439.882812 160.710938 444.003906 159.84375 448.035156 L 156.863281 459.96875 L 154.402344 468.761719 C 151.328125 480.351562 149.140625 491.96875 149.164062 502.308594 L 149.277344 506.085938 C 149.300781 506.726562 149.277344 507.363281 149.324219 507.976562 L 149.574219 509.707031 L 150.007812 513.191406 C 150.1875 514.308594 150.554688 515.265625 150.78125 516.3125 L 151.144531 517.882812 C 151.234375 518.429688 151.507812 518.796875 151.667969 519.273438 C 152.035156 520.160156 152.351562 521.09375 152.695312 522.007812 C 153.171875 522.757812 153.605469 523.554688 154.015625 524.351562 L 154.3125 524.96875 L 154.71875 525.46875 C 154.992188 525.808594 155.246094 526.152344 155.496094 526.515625 C 157.589844 529.269531 160.300781 531.640625 163.96875 533.597656 C 164.945312 534.03125 165.925781 534.488281 166.882812 534.964844 L 170.140625 536.125 C 172.417969 536.808594 174.851562 537.425781 177.085938 537.8125 C 186.171875 539.269531 194.78125 537.855469 203.207031 532.890625 C 207.375 530.410156 211.472656 527.199219 215.1875 523.328125 C 217.054688 521.414062 218.828125 519.34375 220.492188 517.179688 C 221.3125 516.109375 222.109375 515.015625 222.859375 513.898438 L 223.929688 512.28125 L 224.410156 511.53125 C 224.523438 511.347656 224.75 510.9375 224.683594 511.097656 C 228.757812 502.601562 238.960938 499.003906 247.480469 503.082031 C 255.996094 507.15625 259.503906 517.292969 255.425781 525.808594 Z M 255.425781 525.808594 " fill-opacity="1" fill-rule="nonzero"/></g></svg>