<svg xmlns="http://www.w3.org/2000/svg" xmlns:xlink="http://www.w3.org/1999/xlink" width="1000" zoomAndPan="magnify" viewBox="0 0 750 749.999995" height="1000" preserveAspectRatio="xMidYMid meet" version="1.0"><defs><clipPath id="98d5ac8ede"><path d="M 75 287 L 653 287 L 653 615 L 75 615 Z M 75 287 " clip-rule="nonzero"/></clipPath></defs><g clip-path="url(#98d5ac8ede)"><path fill="#000000" d="M 359.585938 429.597656 C 359.585938 429.597656 361.210938 399.238281 345.8125 373.320312 C 336.289062 357.296875 326.164062 343.527344 319.816406 335.363281 C 316.210938 330.738281 309.257812 330.71875 305.574219 335.289062 C 300.246094 341.882812 294.257812 352.425781 294.710938 366.101562 C 294.710938 366.101562 260.800781 361.171875 248.652344 365.234375 L 236.863281 333.777344 C 234.425781 327.296875 225.90625 325.804688 221.46875 331.113281 C 212.191406 342.183594 199.648438 359.585938 197.644531 374.734375 C 197.644531 374.734375 166.71875 414.390625 167.53125 431.390625 C 168.34375 448.394531 186.308594 465.625 202.5 480.1875 C 202.5 480.1875 164.546875 530.042969 117.882812 548.445312 C 114.390625 549.824219 110.667969 550.464844 106.90625 550.390625 C 100.183594 550.257812 88.335938 550.824219 83.273438 555.886719 C 75.980469 563.179688 68.5 578.953125 91.171875 591.914062 C 113.839844 604.875 135.699219 595.558594 135.699219 595.558594 C 135.699219 595.558594 150.492188 614.714844 187.101562 615 C 249.050781 615.472656 312.183594 574.117188 312.183594 574.117188 C 312.183594 574.117188 384.652344 590.308594 441.328125 579.785156 C 498.003906 569.261719 527.964844 516.78125 527.964844 516.78125 C 527.964844 516.78125 525.527344 553.886719 518.253906 568.449219 C 510.964844 583.015625 498.023438 594.164062 511.078125 599.925781 C 524.132812 605.6875 540.527344 603.269531 551.769531 591.421875 C 563.011719 579.578125 567.261719 573.816406 584.261719 532.214844 C 601.265625 490.617188 664.003906 422.71875 651.0625 366.839844 C 638.125 310.957031 575.761719 268.867188 506.941406 295.597656 C 438.117188 322.328125 442.972656 384.652344 408.15625 407.324219 C 373.335938 429.992188 359.585938 429.597656 359.585938 429.597656 Z M 359.585938 429.597656 " fill-opacity="1" fill-rule="nonzero"/></g><path fill="#000000" d="M 582.808594 173.425781 C 582.828125 173.40625 582.429688 173.539062 582.203125 173.613281 L 581.355469 173.917969 L 579.539062 174.578125 C 578.3125 175.03125 577.085938 175.542969 575.875 176.050781 C 573.4375 177.089844 571.039062 178.222656 568.753906 179.414062 C 564.164062 181.792969 560.023438 184.535156 556.871094 187.273438 C 553.695312 190.011719 551.941406 192.695312 551.449219 194.074219 C 551.144531 194.792969 551.089844 195.246094 551.128906 195.980469 C 551.089844 196.152344 551.144531 196.359375 551.183594 196.585938 C 551.222656 196.8125 551.183594 197.019531 551.316406 197.304688 C 551.410156 197.570312 551.46875 197.851562 551.523438 198.117188 C 551.65625 198.324219 551.75 198.550781 551.824219 198.796875 L 551.941406 199.15625 C 552.015625 199.25 552.089844 199.34375 552.148438 199.441406 C 552.28125 199.628906 552.375 199.855469 552.46875 200.082031 C 552.882812 200.421875 552.996094 200.914062 553.527344 201.308594 C 554.246094 202.199219 555.679688 203.085938 557.210938 204.050781 C 560.59375 205.902344 565.371094 207.582031 570.679688 208.921875 C 581.410156 211.644531 593.972656 213.289062 607.085938 216.027344 C 613.660156 217.40625 620.460938 219.066406 627.429688 221.46875 C 634.382812 223.90625 641.5625 227.136719 648.382812 231.953125 C 655.183594 236.710938 661.453125 243.25 665.761719 250.804688 C 666.347656 251.730469 666.859375 252.675781 667.292969 253.601562 L 668.632812 256.398438 C 669.539062 258.25 670.203125 260.308594 670.957031 262.253906 C 671.597656 264.277344 672.167969 266.355469 672.675781 268.449219 C 673.035156 270.585938 673.546875 272.683594 673.675781 274.855469 L 673.941406 278.085938 C 673.980469 279.164062 673.960938 280.238281 673.960938 281.316406 C 674.019531 283.488281 673.734375 285.605469 673.546875 287.738281 C 672.980469 291.933594 672.089844 296.070312 670.75 299.90625 C 668.179688 307.671875 664.308594 314.433594 660.039062 320.515625 C 655.691406 326.5625 650.875 331.925781 645.71875 336.820312 C 643.148438 339.257812 640.484375 341.582031 637.746094 343.789062 C 636.386719 344.90625 634.988281 345.980469 633.550781 347.039062 L 631.359375 348.628906 L 630.207031 349.421875 L 628.867188 350.328125 C 622.367188 354.691406 613.582031 352.953125 609.21875 346.453125 C 605.007812 340.183594 606.480469 331.757812 612.449219 327.261719 L 613.222656 326.675781 L 614.585938 325.65625 L 616.171875 324.40625 C 617.230469 323.558594 618.304688 322.671875 619.34375 321.746094 C 621.441406 319.929688 623.464844 318.003906 625.390625 316.039062 C 629.246094 312.109375 632.703125 307.914062 635.535156 303.609375 C 641.222656 294.957031 644 286.019531 642.75 278.386719 C 642.714844 277.40625 642.335938 276.460938 642.183594 275.480469 C 641.902344 274.515625 641.597656 273.570312 641.257812 272.605469 C 640.789062 271.664062 640.523438 270.699219 639.976562 269.753906 C 639.425781 268.847656 639.011719 267.734375 638.425781 267.015625 C 636.328125 263.710938 633.589844 261.046875 630.019531 258.722656 C 622.878906 254.019531 612.242188 251.203125 600.71875 249.277344 C 589.097656 247.253906 576.554688 246.160156 562.726562 243.25 C 555.792969 241.738281 548.40625 239.773438 540.546875 235.902344 C 536.617188 233.785156 532.574219 231.421875 528.796875 227.871094 C 526.871094 226.285156 525.171875 224.148438 523.449219 222.183594 C 522.65625 221.109375 521.902344 219.992188 521.164062 218.878906 L 520.070312 217.199219 L 519.164062 215.441406 C 518.558594 214.25 517.992188 213.058594 517.425781 211.851562 C 516.953125 210.640625 516.535156 209.433594 516.101562 208.207031 C 515.648438 207.015625 515.363281 205.671875 515.042969 204.351562 C 514.742188 203.027344 514.457031 201.707031 514.324219 200.308594 C 513.570312 194.8125 514.003906 188.824219 515.574219 183.53125 C 517.101562 178.207031 519.519531 173.539062 522.222656 169.570312 C 524.941406 165.605469 527.929688 162.242188 530.988281 159.351562 C 537.128906 153.589844 543.515625 149.226562 549.957031 145.523438 C 553.1875 143.671875 556.4375 141.988281 559.722656 140.441406 C 561.367188 139.667969 563.027344 138.910156 564.730469 138.191406 L 567.316406 137.132812 L 568.675781 136.605469 L 570.285156 136.019531 C 580.617188 132.582031 591.78125 138.15625 595.21875 148.488281 C 598.714844 158.804688 593.140625 169.988281 582.808594 173.425781 Z M 582.808594 173.425781 " fill-opacity="1" fill-rule="nonzero"/><path fill="#ffffff" d="M 226.492188 417.488281 L 203.40625 417.488281 C 202.878906 417.488281 202.460938 417.070312 202.460938 416.542969 C 202.460938 416.015625 202.878906 415.597656 203.40625 415.597656 L 221.882812 415.597656 C 204.144531 407.816406 196.777344 402.355469 196.453125 402.109375 C 196.039062 401.789062 195.945312 401.203125 196.265625 400.789062 C 196.585938 400.371094 197.171875 400.296875 197.589844 400.597656 C 197.664062 400.65625 206.277344 407.019531 226.832031 415.671875 C 227.25 415.84375 227.476562 416.296875 227.398438 416.730469 C 227.324219 417.167969 226.925781 417.488281 226.492188 417.488281 Z M 226.492188 417.488281 " fill-opacity="1" fill-rule="nonzero"/><path fill="#ffffff" d="M 274.15625 418.449219 C 273.722656 418.449219 273.324219 418.148438 273.230469 417.714844 C 273.136719 417.28125 273.34375 416.828125 273.757812 416.636719 C 294.105469 407.476562 302.53125 400.902344 302.625 400.84375 C 303.042969 400.523438 303.628906 400.597656 303.949219 400.996094 C 304.269531 401.410156 304.195312 401.996094 303.796875 402.316406 C 303.476562 402.5625 296.257812 408.191406 278.726562 416.429688 L 297.203125 415.957031 C 297.203125 415.957031 297.222656 415.957031 297.222656 415.957031 C 297.734375 415.957031 298.148438 416.371094 298.167969 416.882812 C 298.1875 417.410156 297.769531 417.847656 297.242188 417.847656 L 274.175781 418.433594 C 274.175781 418.449219 274.15625 418.449219 274.15625 418.449219 Z M 274.15625 418.449219 " fill-opacity="1" fill-rule="nonzero"/><path fill="#c4748c" d="M 252.789062 419.339844 C 252.789062 421.039062 250.429688 424.308594 247.519531 424.308594 C 244.609375 424.308594 242.25 421.039062 242.25 419.339844 C 242.25 417.636719 244.609375 417.488281 247.519531 417.488281 C 250.445312 417.46875 252.789062 417.621094 252.789062 419.339844 Z M 252.789062 419.339844 " fill-opacity="1" fill-rule="nonzero"/><path fill="#ffffff" d="M 525.964844 497.34375 C 525.472656 497.34375 525.054688 496.964844 525.019531 496.472656 C 519.597656 433.128906 539.527344 401.164062 539.734375 400.84375 C 540.019531 400.410156 540.605469 400.277344 541.039062 400.558594 C 541.472656 400.84375 541.605469 401.429688 541.324219 401.863281 C 541.113281 402.167969 521.523438 433.660156 526.890625 496.304688 C 526.925781 496.8125 526.550781 497.285156 526.019531 497.324219 C 526.019531 497.34375 525.980469 497.34375 525.964844 497.34375 Z M 525.964844 497.34375 " fill-opacity="1" fill-rule="nonzero"/><path fill="#ffffff" d="M 136.324219 589.441406 C 135.867188 589.441406 135.472656 589.117188 135.398438 588.644531 C 135.320312 588.230469 133.773438 578.179688 139.496094 570.492188 C 142.820312 566.015625 147.921875 563.3125 154.628906 562.460938 C 162.429688 561.460938 165.660156 563.140625 169.082031 564.9375 C 173.253906 567.109375 177.980469 569.585938 193.46875 567.128906 C 220.84375 562.765625 257.019531 533.613281 257.398438 533.332031 C 257.796875 533.011719 258.402344 533.066406 258.722656 533.464844 C 259.042969 533.859375 258.984375 534.464844 258.589844 534.785156 C 258.230469 535.089844 221.636719 564.539062 193.773438 569 C 177.675781 571.566406 172.632812 568.941406 168.210938 566.617188 C 164.925781 564.898438 162.089844 563.40625 154.875 564.351562 C 148.695312 565.144531 144.03125 567.601562 141.007812 571.625 C 135.753906 578.652344 137.25 588.269531 137.265625 588.363281 C 137.34375 588.871094 137.003906 589.363281 136.492188 589.441406 C 136.417969 589.421875 136.359375 589.441406 136.324219 589.441406 Z M 136.324219 589.441406 " fill-opacity="1" fill-rule="nonzero"/></svg>