<svg xmlns="http://www.w3.org/2000/svg" xmlns:xlink="http://www.w3.org/1999/xlink" width="1000" zoomAndPan="magnify" viewBox="0 0 750 749.999995" height="1000" preserveAspectRatio="xMidYMid meet" version="1.0"><defs><clipPath id="a02fc69b01"><path d="M 95.726562 76 L 654.476562 76 L 654.476562 674 L 95.726562 674 Z M 95.726562 76 " clip-rule="nonzero"/></clipPath></defs><g clip-path="url(#a02fc69b01)"><path fill="#000000" d="M 621.835938 253.390625 C 630.089844 242.050781 637.65625 229.851562 643.746094 216.09375 C 649.707031 202.308594 654.394531 186.667969 654.292969 168.808594 C 654.214844 159.941406 652.738281 150.59375 649.605469 141.625 C 646.625 133.167969 642.394531 125.039062 637.070312 117.703125 C 626.421875 102.976562 611.621094 91.566406 595.160156 84.585938 C 578.679688 77.578125 560.414062 74.726562 542.296875 76.585938 C 524.210938 78.394531 506.402344 84.992188 491.320312 95.234375 C 483.804688 100.378906 476.976562 106.339844 470.863281 112.785156 C 464.800781 119.28125 459.601562 126.316406 454.964844 133.523438 L 454.277344 134.570312 C 453.4375 135.894531 452.671875 137.292969 451.984375 138.773438 C 443.554688 156.9375 451.449219 178.515625 469.613281 186.949219 C 487.78125 195.378906 509.359375 187.484375 517.789062 169.316406 C 525.050781 153.703125 536.4375 143.332031 551.191406 139.742188 C 558.5 137.957031 566.527344 138.136719 574.042969 140.222656 C 581.558594 142.3125 588.410156 146.339844 593.609375 151.816406 C 596.207031 154.566406 598.449219 157.675781 600.207031 161.140625 C 601.734375 164.148438 602.828125 167.535156 603.390625 171.457031 C 604.535156 179.304688 603.261719 189.214844 600.15625 199.355469 C 596.96875 209.546875 592.15625 219.964844 586.347656 230.105469 C 583.441406 235.175781 580.308594 240.167969 576.972656 245.085938 C 575.492188 247.222656 573.992188 249.363281 572.4375 251.453125 C 517.304688 226.054688 454.761719 254.765625 423.324219 289.261719 C 389.46875 326.378906 328.324219 352.847656 328.324219 352.847656 C 378.285156 295.757812 380.601562 278.765625 319.203125 216.167969 C 319.203125 216.167969 298.441406 158.390625 285.675781 143.382812 C 281.78125 138.796875 274.773438 138.875 270.875 143.433594 C 253.375 163.890625 244.253906 204.066406 244.253906 204.066406 C 214.777344 198.617188 192.382812 202.4375 192.382812 202.4375 C 185.761719 176.296875 174.957031 161.140625 163.75 148.988281 C 159.035156 143.894531 150.679688 145.191406 147.75 151.511719 C 135.417969 178.210938 133.433594 221.824219 133.433594 221.824219 C 133.433594 221.824219 89.179688 280.800781 96.566406 312.75 C 102.273438 337.511719 142.707031 378.25 142.707031 378.25 C 142.707031 378.25 143.242188 454.140625 160.183594 494.519531 C 177.097656 534.925781 184.207031 637.542969 184.207031 637.542969 C 184.207031 637.542969 168.386719 664.828125 183.671875 671.554688 C 198.957031 678.28125 224.609375 670.308594 229.527344 656.117188 C 234.445312 641.925781 240.457031 566.59375 240.457031 566.59375 C 265.015625 578.59375 265.578125 641.390625 265.578125 641.390625 C 265.578125 641.390625 262.289062 649.035156 263.945312 662.128906 C 265.578125 675.222656 297.804688 673.058594 304.351562 665.492188 C 310.898438 657.925781 310.898438 612.449219 330.007812 574.234375 C 349.113281 536.023438 416.726562 529.472656 416.726562 529.472656 L 426.558594 637.570312 C 417.820312 653.949219 424.929688 664.855469 443.476562 665.464844 C 462.046875 666.050781 466.941406 656.675781 468.597656 648.5 C 470.226562 640.320312 481.257812 532.9375 481.257812 532.9375 C 490.328125 544.074219 494.964844 558.160156 494.277344 572.503906 L 491.523438 630.488281 C 491.523438 630.488281 485.511719 642.488281 485.511719 655.605469 C 485.511719 668.703125 514.988281 667.070312 528.082031 660.523438 C 541.175781 653.976562 548.820312 538.238281 590.320312 474.523438 C 626.546875 418.882812 639.464844 323.296875 603.59375 275.65625 C 605.351562 273.71875 607.109375 271.757812 608.84375 269.769531 C 613.351562 264.496094 617.683594 259.070312 621.835938 253.390625 Z M 621.835938 253.390625 " fill-opacity="1" fill-rule="nonzero"/></g><path fill="#c1ff72" d="M 208.179688 281.746094 C 209.019531 285.363281 206.929688 289.003906 203.414062 290.152344 C 196.484375 292.445312 184.742188 295.78125 174.832031 295.78125 C 159.722656 295.78125 147.722656 287.398438 147.722656 272.292969 C 147.722656 257.414062 159.085938 245.515625 173.9375 244.929688 C 196.664062 244.039062 205.324219 269.566406 208.179688 281.746094 Z M 208.179688 281.746094 " fill-opacity="1" fill-rule="nonzero"/><path fill="#c1ff72" d="M 243.820312 281.03125 C 243.054688 284.648438 245.222656 288.265625 248.761719 289.363281 C 255.742188 291.527344 267.539062 294.609375 277.449219 294.40625 C 292.554688 294.101562 304.375 285.464844 304.070312 270.355469 C 303.765625 255.480469 292.171875 243.835938 277.296875 243.53125 C 254.570312 243.097656 246.417969 268.800781 243.820312 281.03125 Z M 243.820312 281.03125 " fill-opacity="1" fill-rule="nonzero"/><path fill="#000000" d="M 193.121094 278.765625 C 189.046875 278.765625 185.761719 276.980469 185.761719 274.765625 C 185.761719 272.546875 189.070312 270.765625 193.121094 270.765625 C 194.371094 270.765625 195.542969 270.941406 196.585938 271.25 C 196.128906 261.414062 188.027344 253.566406 178.066406 253.566406 C 167.824219 253.566406 159.492188 261.875 159.492188 272.140625 C 159.492188 282.382812 167.800781 290.710938 178.066406 290.710938 C 186.066406 290.710938 192.867188 285.640625 195.464844 278.535156 C 194.726562 278.6875 193.964844 278.765625 193.121094 278.765625 Z M 193.121094 278.765625 " fill-opacity="1" fill-rule="nonzero"/><path fill="#000000" d="M 287.664062 275.324219 C 283.589844 275.324219 280.300781 273.542969 280.300781 271.324219 C 280.300781 269.109375 283.613281 267.324219 287.664062 267.324219 C 288.480469 267.324219 289.242188 267.402344 289.984375 267.554688 C 288.199219 258.96875 280.53125 252.574219 271.4375 252.777344 C 261.195312 252.980469 253.042969 261.464844 253.246094 271.707031 C 253.449219 281.949219 261.933594 290.101562 272.175781 289.898438 C 280.988281 289.71875 288.25 283.402344 289.957031 275.121094 C 289.242188 275.25 288.480469 275.324219 287.664062 275.324219 Z M 287.664062 275.324219 " fill-opacity="1" fill-rule="nonzero"/><path fill="#c4748c" d="M 233.121094 288.597656 C 233.121094 290.890625 229.9375 295.296875 226.011719 295.296875 C 222.089844 295.296875 218.90625 290.890625 218.90625 288.597656 C 218.90625 286.304688 222.089844 286.101562 226.011719 286.101562 C 229.9375 286.101562 233.121094 286.304688 233.121094 288.597656 Z M 233.121094 288.597656 " fill-opacity="1" fill-rule="nonzero"/><path fill="#ffffff" d="M 575.46875 328.644531 C 575.0625 328.644531 574.652344 328.441406 574.398438 328.058594 C 565.378906 314.253906 550.859375 306.761719 550.730469 306.6875 C 550.09375 306.355469 549.863281 305.589844 550.171875 304.980469 C 550.5 304.34375 551.265625 304.113281 551.878906 304.417969 C 552.488281 304.722656 567.113281 312.265625 576.539062 326.660156 C 576.921875 327.246094 576.769531 328.035156 576.15625 328.417969 C 575.953125 328.570312 575.722656 328.644531 575.46875 328.644531 Z M 575.46875 328.644531 " fill-opacity="1" fill-rule="nonzero"/><path fill="#ffffff" d="M 551.316406 328.644531 C 551.089844 328.644531 550.832031 328.570312 550.628906 328.441406 C 550.042969 328.058594 549.863281 327.269531 550.246094 326.683594 C 559.671875 312.289062 574.296875 304.75 574.90625 304.445312 C 575.546875 304.136719 576.308594 304.367188 576.613281 305.003906 C 576.945312 305.640625 576.691406 306.40625 576.054688 306.710938 C 575.902344 306.789062 561.40625 314.277344 552.386719 328.085938 C 552.132812 328.441406 551.726562 328.644531 551.316406 328.644531 Z M 551.316406 328.644531 " fill-opacity="1" fill-rule="nonzero"/></svg>