<svg xmlns="http://www.w3.org/2000/svg" xmlns:xlink="http://www.w3.org/1999/xlink" width="1000" zoomAndPan="magnify" viewBox="0 0 750 749.999995" height="1000" preserveAspectRatio="xMidYMid meet" version="1.0"><defs><clipPath id="dc31429b65"><path d="M 183 180.273438 L 675 180.273438 L 675 549 L 183 549 Z M 183 180.273438 " clip-rule="nonzero"/></clipPath><clipPath id="6a5cdfc837"><path d="M 75 527 L 134 527 L 134 569.523438 L 75 569.523438 Z M 75 527 " clip-rule="nonzero"/></clipPath></defs><g clip-path="url(#dc31429b65)"><path fill="#000000" d="M 624.523438 194.125 C 598.589844 217.214844 581.953125 268.222656 594.308594 332.242188 C 600.578125 364.699219 593.726562 372.753906 588.441406 374.503906 C 571.164062 350.886719 543.9375 333.226562 518.132812 328.816406 C 454.820312 318.027344 390.617188 351.671875 390.617188 351.671875 C 379.464844 302.484375 344.800781 269.117188 325.320312 253.699219 C 319.035156 248.722656 309.703125 251.875 307.789062 259.675781 L 297.292969 302.210938 L 269.957031 305.800781 C 246.59375 285.589844 222.957031 281.433594 208.6875 281.105469 C 201.617188 280.941406 196.238281 287.484375 197.753906 294.410156 C 203.929688 322.929688 211.183594 346.257812 211.183594 346.257812 C 211.183594 346.257812 184.210938 399.125 200.394531 420.175781 C 216.578125 441.222656 240.851562 443.921875 240.851562 443.921875 C 240.851562 443.921875 236.714844 467.300781 214.957031 490.867188 C 205.113281 501.507812 198.410156 502.914062 189.425781 509.382812 C 180.4375 515.851562 176.832031 532.035156 208.121094 533.839844 C 239.414062 535.644531 256.324219 518.019531 256.324219 518.019531 C 276.097656 521.609375 286.90625 517.65625 286.90625 517.65625 C 286.90625 517.65625 272.691406 530.777344 278.085938 540.492188 C 283.480469 550.203125 299.003906 551.207031 320.164062 545.339844 C 345.511719 538.320312 352 529.519531 371.410156 507.925781 C 390.835938 486.347656 414.929688 480.585938 414.929688 480.585938 C 448.734375 480.953125 466.722656 471.949219 466.722656 471.949219 C 460.964844 487.421875 471.042969 497.136719 471.042969 497.136719 C 471.042969 497.136719 445.144531 501.453125 436.160156 515.832031 C 427.175781 530.210938 441.191406 544.609375 485.074219 533.820312 C 528.957031 523.03125 552.683594 532.378906 563.472656 517.273438 C 574.261719 502.164062 565.625 492.816406 565.625 492.816406 C 604.441406 465.132812 612.003906 431.984375 602.910156 402.660156 C 603.402344 402.441406 603.875 402.261719 604.386719 402.003906 C 628.167969 390.671875 630.066406 352.035156 625.746094 295.921875 C 621.425781 239.8125 647.996094 222.332031 664.363281 210.835938 C 691.007812 192.101562 659.859375 162.648438 624.523438 194.125 Z M 624.523438 194.125 " fill-opacity="1" fill-rule="nonzero"/></g><path fill="#c1ff72" d="M 258.4375 388.8125 C 259.078125 391.527344 257.507812 394.277344 254.847656 395.152344 C 249.636719 396.882812 240.78125 399.382812 233.324219 399.382812 C 221.9375 399.382812 212.914062 393.058594 212.914062 381.6875 C 212.914062 370.476562 221.460938 361.53125 232.667969 361.074219 C 249.765625 360.398438 256.304688 379.644531 258.4375 388.8125 Z M 258.4375 388.8125 " fill-opacity="1" fill-rule="nonzero"/><path fill="#c1ff72" d="M 285.300781 388.265625 C 284.71875 391 286.339844 393.714844 289.019531 394.535156 C 294.265625 396.15625 303.179688 398.488281 310.632812 398.324219 C 322.023438 398.085938 330.914062 391.597656 330.679688 380.210938 C 330.460938 369 321.710938 360.21875 310.523438 360.015625 C 293.390625 359.6875 287.25 379.0625 285.300781 388.265625 Z M 285.300781 388.265625 " fill-opacity="1" fill-rule="nonzero"/><path fill="#000000" d="M 176.355469 502.894531 C 176.355469 504.167969 176.292969 505.4375 176.171875 506.703125 C 176.046875 507.96875 175.859375 509.226562 175.609375 510.472656 C 175.363281 511.722656 175.054688 512.953125 174.683594 514.171875 C 174.316406 515.390625 173.886719 516.585938 173.398438 517.761719 C 172.914062 518.9375 172.371094 520.085938 171.769531 521.210938 C 171.167969 522.332031 170.515625 523.421875 169.808594 524.480469 C 169.101562 525.539062 168.34375 526.558594 167.539062 527.542969 C 166.730469 528.527344 165.878906 529.46875 164.976562 530.367188 C 164.078125 531.269531 163.136719 532.121094 162.152344 532.929688 C 161.167969 533.734375 160.148438 534.492188 159.089844 535.199219 C 158.03125 535.90625 156.941406 536.558594 155.820312 537.160156 C 154.695312 537.761719 153.546875 538.304688 152.371094 538.789062 C 151.195312 539.277344 150 539.707031 148.78125 540.074219 C 147.5625 540.445312 146.332031 540.753906 145.082031 541 C 143.835938 541.25 142.578125 541.4375 141.3125 541.5625 C 140.046875 541.6875 138.777344 541.746094 137.503906 541.746094 C 136.230469 541.746094 134.960938 541.6875 133.695312 541.5625 C 132.429688 541.4375 131.171875 541.25 129.921875 541 C 128.675781 540.753906 127.441406 540.445312 126.226562 540.074219 C 125.007812 539.707031 123.808594 539.277344 122.632812 538.789062 C 121.460938 538.304688 120.308594 537.761719 119.1875 537.160156 C 118.066406 536.558594 116.976562 535.90625 115.917969 535.199219 C 114.859375 534.492188 113.839844 533.734375 112.855469 532.929688 C 111.871094 532.121094 110.929688 531.269531 110.03125 530.367188 C 109.128906 529.46875 108.277344 528.527344 107.46875 527.542969 C 106.660156 526.558594 105.90625 525.539062 105.199219 524.480469 C 104.492188 523.421875 103.835938 522.332031 103.238281 521.210938 C 102.636719 520.085938 102.09375 518.9375 101.605469 517.761719 C 101.121094 516.585938 100.691406 515.390625 100.324219 514.171875 C 99.953125 512.953125 99.644531 511.722656 99.394531 510.472656 C 99.148438 509.226562 98.960938 507.96875 98.835938 506.703125 C 98.710938 505.4375 98.648438 504.167969 98.648438 502.894531 C 98.648438 501.621094 98.710938 500.351562 98.835938 499.085938 C 98.960938 497.820312 99.148438 496.5625 99.394531 495.3125 C 99.644531 494.066406 99.953125 492.832031 100.324219 491.617188 C 100.691406 490.398438 101.121094 489.199219 101.605469 488.027344 C 102.09375 486.851562 102.636719 485.699219 103.238281 484.578125 C 103.835938 483.457031 104.492188 482.367188 105.199219 481.308594 C 105.90625 480.25 106.660156 479.230469 107.46875 478.246094 C 108.277344 477.261719 109.128906 476.320312 110.03125 475.421875 C 110.929688 474.519531 111.871094 473.667969 112.855469 472.859375 C 113.839844 472.050781 114.859375 471.296875 115.917969 470.589844 C 116.976562 469.882812 118.066406 469.226562 119.1875 468.628906 C 120.308594 468.027344 121.460938 467.484375 122.632812 466.996094 C 123.808594 466.511719 125.007812 466.082031 126.226562 465.714844 C 127.441406 465.34375 128.675781 465.035156 129.921875 464.785156 C 131.171875 464.539062 132.429688 464.351562 133.695312 464.226562 C 134.960938 464.101562 136.230469 464.039062 137.503906 464.039062 C 138.777344 464.039062 140.046875 464.101562 141.3125 464.226562 C 142.578125 464.351562 143.835938 464.539062 145.082031 464.785156 C 146.332031 465.035156 147.5625 465.34375 148.78125 465.714844 C 150 466.082031 151.195312 466.511719 152.371094 466.996094 C 153.546875 467.484375 154.695312 468.027344 155.820312 468.628906 C 156.941406 469.226562 158.03125 469.882812 159.089844 470.589844 C 160.148438 471.296875 161.167969 472.050781 162.152344 472.859375 C 163.136719 473.667969 164.078125 474.519531 164.976562 475.421875 C 165.878906 476.320312 166.730469 477.261719 167.539062 478.246094 C 168.34375 479.230469 169.101562 480.25 169.808594 481.308594 C 170.515625 482.367188 171.167969 483.457031 171.769531 484.578125 C 172.371094 485.699219 172.914062 486.851562 173.398438 488.027344 C 173.886719 489.199219 174.316406 490.398438 174.683594 491.617188 C 175.054688 492.832031 175.363281 494.066406 175.609375 495.3125 C 175.859375 496.5625 176.046875 497.820312 176.171875 499.085938 C 176.292969 500.351562 176.355469 501.621094 176.355469 502.894531 Z M 176.355469 502.894531 " fill-opacity="1" fill-rule="nonzero"/><g clip-path="url(#6a5cdfc837)"><path fill="#000000" d="M 88.023438 569.722656 C 83.121094 569.722656 79.496094 569.558594 78.367188 569.503906 C 76.78125 569.414062 75.558594 568.0625 75.652344 566.476562 C 75.742188 564.894531 77.070312 563.671875 78.675781 563.761719 C 89.226562 564.308594 118.550781 564.183594 127.28125 557.019531 C 127.445312 556.890625 127.554688 556.78125 127.664062 556.691406 C 125.601562 554.941406 116.984375 552.753906 111.699219 551.425781 C 99.507812 548.34375 91.941406 546.15625 89.683594 541.839844 C 88.917969 540.382812 88.828125 538.8125 89.410156 537.265625 C 93.636719 526.003906 123.34375 526.878906 129.265625 527.167969 C 130.851562 527.242188 132.074219 528.589844 132 530.195312 C 131.925781 531.78125 130.578125 533.035156 128.972656 532.925781 C 116.382812 532.308594 96.808594 533.910156 94.804688 539.289062 C 95.699219 541.4375 107.03125 544.300781 113.121094 545.847656 C 125.476562 548.964844 132.511719 550.96875 133.546875 555.597656 C 133.875 557.039062 133.675781 559.226562 130.941406 561.464844 C 122.230469 568.574219 100.800781 569.722656 88.023438 569.722656 Z M 88.023438 569.722656 " fill-opacity="1" fill-rule="nonzero"/></g><path fill="#000000" d="M 242.144531 386.570312 C 239.085938 386.570312 236.585938 385.222656 236.585938 383.5625 C 236.585938 381.902344 239.066406 380.554688 242.144531 380.554688 C 243.09375 380.554688 243.96875 380.703125 244.753906 380.921875 C 244.40625 373.503906 238.300781 367.597656 230.8125 367.597656 C 223.082031 367.597656 216.832031 373.867188 216.832031 381.578125 C 216.832031 389.304688 223.101562 395.554688 230.8125 395.554688 C 236.84375 395.554688 241.964844 391.726562 243.933594 386.386719 C 243.347656 386.496094 242.765625 386.570312 242.144531 386.570312 Z M 242.144531 386.570312 " fill-opacity="1" fill-rule="nonzero"/><path fill="#000000" d="M 318.324219 383.980469 C 315.261719 383.980469 312.765625 382.632812 312.765625 380.976562 C 312.765625 379.316406 315.242188 377.96875 318.324219 377.96875 C 318.941406 377.96875 319.507812 378.039062 320.074219 378.132812 C 318.742188 371.664062 312.945312 366.851562 306.113281 366.996094 C 298.386719 367.160156 292.261719 373.539062 292.410156 381.265625 C 292.574219 388.992188 298.949219 395.117188 306.679688 394.972656 C 313.328125 394.84375 318.777344 390.085938 320.074219 383.835938 C 319.507812 383.910156 318.941406 383.980469 318.324219 383.980469 Z M 318.324219 383.980469 " fill-opacity="1" fill-rule="nonzero"/><path fill="#c4748c" d="M 275.714844 396.410156 C 275.714844 398.140625 273.328125 401.457031 270.375 401.457031 C 267.421875 401.457031 265.035156 398.140625 265.035156 396.410156 C 265.035156 394.679688 267.421875 394.535156 270.375 394.535156 C 273.328125 394.535156 275.714844 394.679688 275.714844 396.410156 Z M 275.714844 396.410156 " fill-opacity="1" fill-rule="nonzero"/></svg>