<svg xmlns="http://www.w3.org/2000/svg" xmlns:xlink="http://www.w3.org/1999/xlink" width="1000" zoomAndPan="magnify" viewBox="0 0 750 749.999995" height="1000" preserveAspectRatio="xMidYMid meet" version="1.0"><defs><clipPath id="8407f6a5eb"><path d="M 148.949219 125.847656 L 601 125.847656 L 601 623.847656 L 148.949219 623.847656 Z M 148.949219 125.847656 " clip-rule="nonzero"/></clipPath></defs><g clip-path="url(#8407f6a5eb)"><path fill="#000000" d="M 575.640625 280.769531 C 574.652344 280.671875 574.460938 280.671875 573.980469 280.625 L 572.875 280.578125 L 570.878906 280.527344 C 569.578125 280.503906 568.421875 280.527344 567.222656 280.550781 C 564.886719 280.625 562.601562 280.769531 560.363281 281.007812 C 555.867188 281.464844 551.488281 282.210938 547.15625 283.222656 C 538.496094 285.316406 530.03125 288.441406 522.113281 292.84375 C 514.199219 297.199219 506.863281 302.683594 500.558594 308.964844 C 494.234375 315.242188 488.917969 322.289062 484.636719 329.554688 C 476.023438 344.183594 471.257812 359.554688 468.613281 374.347656 C 465.941406 389.503906 465.316406 402.902344 464.910156 416.589844 C 464.546875 430.160156 464.8125 443.460938 464.933594 456.117188 C 465.027344 468.769531 464.957031 480.917969 463.371094 491.359375 C 462.625 496.289062 461.539062 500.742188 460.023438 504.613281 C 453.167969 419.671875 391.679688 331.3125 391.679688 331.3125 C 448.671875 293.902344 449.65625 263.59375 420.164062 218.414062 C 399.714844 187.070312 382.105469 151.5625 373.253906 132.726562 C 369.8125 125.4375 360.214844 123.464844 354.371094 128.996094 C 334.28125 147.976562 330.769531 172.585938 330.769531 172.585938 C 301.300781 161.136719 269.859375 171.335938 269.859375 171.335938 L 228.363281 129.933594 C 222.589844 124.160156 212.726562 125.703125 209.1875 133.0625 C 194.203125 164.167969 200.097656 203.714844 200.097656 203.714844 C 200.097656 203.714844 174.546875 230.226562 163.722656 265.589844 C 152.921875 300.976562 209.910156 331.335938 209.910156 331.335938 C 209.910156 331.335938 147.84375 460.925781 149 524.796875 C 149.816406 570.601562 173.753906 591.289062 217.679688 599.421875 C 223.140625 609.066406 231.320312 619.410156 242.21875 622.128906 C 261.609375 626.964844 282.441406 623.835938 282.777344 603.96875 C 289.441406 603.941406 296.34375 603.847656 303.492188 603.65625 C 305.488281 611.785156 311.066406 623.40625 326.65625 623.550781 C 342.726562 623.691406 357.375 616.234375 367.984375 600.480469 C 417.445312 596.125 443.8125 586.285156 454.492188 559.777344 C 456.222656 559.078125 457.933594 558.332031 459.664062 557.515625 C 466.929688 554.121094 474.195312 549.503906 480.617188 543.441406 C 487.066406 537.425781 492.40625 529.992188 496.207031 522.320312 C 500.03125 514.621094 502.460938 506.804688 504.167969 499.347656 C 507.488281 484.359375 508.355469 470.550781 509.246094 457.367188 C 510.0625 444.183594 510.710938 431.601562 511.914062 419.335938 C 513.09375 407.234375 514.777344 394.773438 517.328125 384.597656 C 519.902344 374.109375 523.871094 364.679688 528.996094 357.339844 C 534.09375 349.929688 540.277344 344.808594 547.375 341.582031 C 550.910156 339.949219 554.785156 338.867188 558.753906 338.214844 C 560.75 337.902344 562.769531 337.734375 564.71875 337.6875 C 565.707031 337.636719 566.644531 337.6875 567.535156 337.710938 C 567.941406 337.734375 568.421875 337.757812 568.734375 337.808594 C 568.929688 337.832031 569.097656 337.855469 569.167969 337.855469 C 569.21875 337.855469 569.3125 337.878906 569.265625 337.878906 C 584.878906 339.492188 598.925781 328.304688 600.78125 312.667969 C 602.679688 296.933594 591.421875 282.621094 575.640625 280.769531 Z M 575.640625 280.769531 " fill-opacity="1" fill-rule="nonzero"/></g><path fill="#000000" d="M 569.3125 337.925781 C 569.167969 337.902344 569.023438 337.902344 568.855469 337.902344 C 569.433594 337.953125 569.242188 337.925781 569.3125 337.925781 Z M 569.3125 337.925781 " fill-opacity="1" fill-rule="nonzero"/><path fill="#c1ff72" d="M 270.703125 248.148438 C 271.589844 251.925781 269.402344 255.75 265.722656 256.976562 C 258.457031 259.382812 246.164062 262.871094 235.796875 262.871094 C 219.964844 262.871094 207.410156 254.089844 207.410156 238.261719 C 207.410156 222.671875 219.292969 210.210938 234.882812 209.609375 C 258.648438 208.648438 267.742188 235.398438 270.703125 248.148438 Z M 270.703125 248.148438 " fill-opacity="1" fill-rule="nonzero"/><path fill="#c1ff72" d="M 308.0625 247.402344 C 307.265625 251.203125 309.503906 254.980469 313.234375 256.109375 C 320.546875 258.371094 332.910156 261.597656 343.28125 261.402344 C 359.109375 261.089844 371.472656 252.046875 371.160156 236.214844 C 370.847656 220.628906 358.699219 208.40625 343.109375 208.117188 C 319.320312 207.660156 310.78125 234.582031 308.0625 247.402344 Z M 308.0625 247.402344 " fill-opacity="1" fill-rule="nonzero"/><path fill="#000000" d="M 254.945312 245.019531 C 250.6875 245.019531 247.222656 243.144531 247.222656 240.835938 C 247.222656 238.527344 250.6875 236.648438 254.945312 236.648438 C 256.265625 236.648438 257.46875 236.84375 258.554688 237.15625 C 258.070312 226.835938 249.578125 218.632812 239.164062 218.632812 C 228.433594 218.632812 219.726562 227.339844 219.726562 238.070312 C 219.726562 248.796875 228.433594 257.507812 239.164062 257.507812 C 247.535156 257.507812 254.65625 252.191406 257.398438 244.757812 C 256.628906 244.925781 255.808594 245.019531 254.945312 245.019531 Z M 254.945312 245.019531 " fill-opacity="1" fill-rule="nonzero"/><path fill="#000000" d="M 353.984375 241.414062 C 349.726562 241.414062 346.261719 239.535156 346.261719 237.226562 C 346.261719 234.917969 349.726562 233.042969 353.984375 233.042969 C 354.828125 233.042969 355.644531 233.136719 356.414062 233.28125 C 354.5625 224.285156 346.503906 217.597656 337 217.789062 C 326.273438 218.007812 317.730469 226.882812 317.949219 237.613281 C 318.164062 248.339844 327.042969 256.882812 337.769531 256.664062 C 347.007812 256.472656 354.609375 249.855469 356.414062 241.171875 C 355.644531 241.316406 354.828125 241.414062 353.984375 241.414062 Z M 353.984375 241.414062 " fill-opacity="1" fill-rule="nonzero"/><path fill="#c4748c" d="M 296.828125 255.339844 C 296.828125 257.746094 293.507812 262.367188 289.394531 262.367188 C 285.28125 262.367188 281.960938 257.746094 281.960938 255.339844 C 281.960938 252.9375 285.28125 252.71875 289.394531 252.71875 C 293.507812 252.71875 296.828125 252.9375 296.828125 255.339844 Z M 296.828125 255.339844 " fill-opacity="1" fill-rule="nonzero"/><path fill="#ffffff" d="M 306.546875 593.671875 C 306.472656 593.671875 306.402344 593.671875 306.328125 593.648438 C 305.679688 593.527344 305.246094 592.902344 305.367188 592.25 C 311.621094 558.308594 310.949219 515.753906 307.675781 490.566406 C 304.40625 465.328125 287.277344 462.46875 282.945312 462.128906 C 281.382812 470.117188 271.445312 525.300781 281.429688 592.300781 C 281.527344 592.949219 281.070312 593.574219 280.421875 593.671875 C 279.769531 593.765625 279.144531 593.308594 279.050781 592.660156 C 268.222656 520.082031 280.660156 461.242188 280.78125 460.640625 L 280.972656 459.699219 L 281.9375 459.699219 C 282.25 459.75 306.089844 459.75 310.035156 490.253906 C 313.328125 515.609375 314.003906 558.5 307.699219 592.683594 C 307.605469 593.261719 307.097656 593.671875 306.546875 593.671875 Z M 306.546875 593.671875 " fill-opacity="1" fill-rule="nonzero"/><path fill="#ffffff" d="M 372.652344 593.671875 C 372.460938 593.671875 372.292969 593.621094 372.125 593.550781 C 371.523438 593.261719 371.28125 592.539062 371.59375 591.9375 C 383.359375 568.410156 387.929688 544.546875 387.976562 544.308594 C 388.097656 543.65625 388.722656 543.226562 389.371094 543.34375 C 390.019531 543.464844 390.453125 544.089844 390.332031 544.738281 C 390.285156 544.980469 385.644531 569.15625 373.734375 592.996094 C 373.519531 593.429688 373.085938 593.671875 372.652344 593.671875 Z M 372.652344 593.671875 " fill-opacity="1" fill-rule="nonzero"/><path fill="#ffffff" d="M 216.574219 593.671875 C 216.09375 593.671875 215.636719 593.382812 215.46875 592.925781 C 205.195312 567.378906 204.042969 540.097656 204.042969 539.808594 C 204.015625 539.136719 204.523438 538.582031 205.195312 538.558594 C 205.84375 538.507812 206.421875 539.039062 206.445312 539.710938 C 206.445312 539.976562 207.601562 566.871094 217.703125 592.011719 C 217.945312 592.636719 217.65625 593.335938 217.03125 593.574219 C 216.886719 593.648438 216.71875 593.671875 216.574219 593.671875 Z M 216.574219 593.671875 " fill-opacity="1" fill-rule="nonzero"/></svg>