<svg xmlns="http://www.w3.org/2000/svg" xmlns:xlink="http://www.w3.org/1999/xlink" width="1000" zoomAndPan="magnify" viewBox="0 0 750 749.999995" height="1000" preserveAspectRatio="xMidYMid meet" version="1.0"><defs><clipPath id="018b199452"><path d="M 75 155.183594 L 675 155.183594 L 675 594.683594 L 75 594.683594 Z M 75 155.183594 " clip-rule="nonzero"/></clipPath></defs><g clip-path="url(#018b199452)"><path fill="#000000" d="M 669.296875 450.023438 C 664.761719 445.488281 656.3125 443.691406 645.972656 443.089844 C 651.609375 437.902344 655.300781 431.363281 651.554688 424.128906 C 643.347656 408.335938 623.65625 410.191406 586.824219 406.070312 C 570.859375 404.289062 557.484375 398.03125 547.421875 391.53125 C 547.421875 391.0625 547.421875 390.613281 547.421875 390.144531 C 547.421875 358.78125 526.046875 318.628906 526.046875 318.628906 C 526.046875 318.628906 555.515625 292.496094 555.515625 273.964844 C 555.515625 245.449219 536.03125 219.949219 536.03125 219.949219 C 542.308594 206.648438 544.40625 190.480469 545.082031 179.40625 C 545.457031 173.019531 538.878906 168.484375 533.054688 171.144531 C 507.496094 182.722656 496.125 198.421875 496.125 198.421875 C 475.460938 190.59375 450.503906 197.710938 450.503906 197.710938 C 453.257812 176.800781 448.855469 171.011719 444.132812 160.410156 C 441.304688 154.039062 432.535156 153.347656 428.734375 159.210938 C 423.414062 167.433594 410.878906 183.042969 395.851562 206.03125 C 380.152344 230.050781 375.785156 255.417969 375.730469 276.0625 C 375.675781 297.777344 357.894531 315.390625 336.179688 315.578125 C 252.675781 316.34375 209.152344 363.800781 202.464844 429.359375 C 198.90625 464.28125 213.164062 483.523438 215.503906 495.550781 C 201.359375 506.210938 192.121094 511.042969 173.105469 517.902344 C 111.222656 540.179688 100.226562 513.066406 79.503906 541.808594 C 66.726562 559.550781 83.402344 584.824219 117.199219 589.226562 C 151 593.628906 190.550781 572.945312 223.316406 546.359375 C 234.164062 537.554688 242.652344 528.972656 249.171875 521.421875 C 248.308594 526.820312 249.191406 533.84375 254.738281 541.957031 C 272.3125 567.625 339.328125 569.050781 367.824219 573.789062 C 396.339844 578.546875 419.140625 605.394531 442.898438 590.183594 C 459.648438 579.464844 454.53125 552.414062 407.972656 541.472656 C 379.367188 534.761719 350.230469 527.679688 350.230469 527.679688 C 350.230469 527.679688 409.996094 516.644531 453.351562 500.589844 C 491.835938 486.332031 508.003906 477.300781 508.003906 477.300781 C 508.003906 477.300781 558.140625 494.875 620.152344 488.46875 C 671.246094 483.222656 683.554688 464.28125 669.296875 450.023438 Z M 669.296875 450.023438 " fill-opacity="1" fill-rule="nonzero"/></g><path fill="#c1ff72" d="M 465.699219 250.75 C 466.296875 253.300781 464.816406 255.847656 462.34375 256.671875 C 457.472656 258.285156 449.210938 260.625 442.261719 260.625 C 431.636719 260.625 423.207031 254.722656 423.207031 244.101562 C 423.207031 233.644531 431.1875 225.289062 441.625 224.878906 C 457.605469 224.261719 463.710938 242.191406 465.699219 250.75 Z M 465.699219 250.75 " fill-opacity="1" fill-rule="nonzero"/><path fill="#c1ff72" d="M 490.765625 250.246094 C 490.222656 252.792969 491.742188 255.324219 494.234375 256.089844 C 499.140625 257.609375 507.441406 259.78125 514.390625 259.632812 C 525.015625 259.425781 533.316406 253.355469 533.089844 242.734375 C 532.882812 232.277344 524.734375 224.089844 514.28125 223.886719 C 498.316406 223.585938 492.585938 241.644531 490.765625 250.246094 Z M 490.765625 250.246094 " fill-opacity="1" fill-rule="nonzero"/><path fill="#000000" d="M 455.132812 248.671875 C 452.265625 248.671875 449.960938 247.417969 449.960938 245.863281 C 449.960938 244.308594 452.285156 243.050781 455.132812 243.050781 C 456.011719 243.050781 456.835938 243.183594 457.566406 243.390625 C 457.25 236.476562 451.554688 230.96875 444.546875 230.96875 C 437.332031 230.96875 431.507812 236.8125 431.507812 244.007812 C 431.507812 251.21875 437.351562 257.046875 444.546875 257.046875 C 450.167969 257.046875 454.945312 253.488281 456.78125 248.503906 C 456.257812 248.597656 455.710938 248.671875 455.132812 248.671875 Z M 455.132812 248.671875 " fill-opacity="1" fill-rule="nonzero"/><path fill="#000000" d="M 521.566406 246.238281 C 518.703125 246.238281 516.398438 244.980469 516.398438 243.425781 C 516.398438 241.871094 518.71875 240.617188 521.566406 240.617188 C 522.148438 240.617188 522.671875 240.671875 523.199219 240.765625 C 521.941406 234.734375 516.546875 230.238281 510.175781 230.367188 C 502.980469 230.515625 497.25 236.476562 497.398438 243.667969 C 497.550781 250.863281 503.507812 256.597656 510.703125 256.449219 C 516.902344 256.316406 522 251.875 523.199219 246.050781 C 522.691406 246.179688 522.148438 246.238281 521.566406 246.238281 Z M 521.566406 246.238281 " fill-opacity="1" fill-rule="nonzero"/><path fill="#c4748c" d="M 483.234375 255.585938 C 483.234375 257.195312 481.003906 260.308594 478.25 260.308594 C 475.496094 260.308594 473.269531 257.214844 473.269531 255.585938 C 473.269531 253.972656 475.496094 253.824219 478.25 253.824219 C 481.003906 253.824219 483.234375 253.957031 483.234375 255.585938 Z M 483.234375 255.585938 " fill-opacity="1" fill-rule="nonzero"/><path fill="#ffffff" d="M 353.304688 520.113281 C 353.023438 520.113281 352.722656 519.980469 352.554688 519.71875 C 352.253906 519.308594 352.347656 518.707031 352.761719 518.40625 C 353.042969 518.203125 380.507812 497.890625 384.386719 472 C 386.054688 460.871094 383.148438 450.230469 375.769531 440.375 C 351.429688 407.867188 305.753906 417.984375 305.285156 418.097656 C 304.777344 418.210938 304.273438 417.890625 304.160156 417.386719 C 304.046875 416.878906 304.367188 416.375 304.855469 416.261719 C 305.324219 416.148438 352.179688 405.75 377.25 439.25 C 384.949219 449.535156 387.964844 460.644531 386.222656 472.300781 C 382.214844 498.980469 354.128906 519.71875 353.847656 519.925781 C 353.679688 520.054688 353.492188 520.113281 353.304688 520.113281 Z M 353.304688 520.113281 " fill-opacity="1" fill-rule="nonzero"/><path fill="#ffffff" d="M 623.433594 447.082031 C 576.183594 447.082031 539.574219 429.65625 539.179688 429.46875 C 538.710938 429.246094 538.523438 428.683594 538.75 428.214844 C 538.972656 427.746094 539.535156 427.558594 540.003906 427.785156 C 540.433594 427.988281 583.171875 448.300781 635.761719 444.796875 C 636.285156 444.757812 636.714844 445.152344 636.753906 445.675781 C 636.792969 446.199219 636.398438 446.632812 635.875 446.667969 C 631.640625 446.96875 627.5 447.082031 623.433594 447.082031 Z M 623.433594 447.082031 " fill-opacity="1" fill-rule="nonzero"/></svg>