<svg xmlns="http://www.w3.org/2000/svg" xmlns:xlink="http://www.w3.org/1999/xlink" width="1000" zoomAndPan="magnify" viewBox="0 0 750 749.999995" height="1000" preserveAspectRatio="xMidYMid meet" version="1.0"><defs><clipPath id="28afce693a"><path d="M 195 75 L 613.636719 75 L 613.636719 675 L 195 675 Z M 195 75 " clip-rule="nonzero"/></clipPath><clipPath id="f25ca5cb56"><path d="M 136.636719 301 L 317 301 L 317 535 L 136.636719 535 Z M 136.636719 301 " clip-rule="nonzero"/></clipPath></defs><g clip-path="url(#28afce693a)"><path fill="#000000" d="M 307.667969 221.492188 C 307.667969 221.492188 291.742188 172.304688 323.589844 124.675781 C 323.589844 124.675781 322.988281 103.503906 341.507812 78.558594 C 344.847656 74.082031 351.792969 74.929688 353.949219 80.09375 L 368.320312 114.578125 C 368.320312 114.578125 390.300781 110.035156 420.636719 116.089844 C 420.636719 116.089844 427.871094 94.960938 450.972656 83.949219 C 455.390625 81.835938 460.613281 84.65625 461.238281 89.527344 L 467.894531 140.539062 C 467.894531 140.539062 489.269531 173.59375 486.722656 197.6875 C 484.316406 220.476562 463.847656 241.210938 463.847656 241.210938 C 463.847656 241.210938 540.925781 175.003906 581.878906 165.402344 C 622.832031 155.800781 620.300781 192.191406 594.507812 208.863281 C 568.710938 225.535156 540.925781 249.300781 526.265625 286.207031 C 511.605469 323.097656 514.632812 320.835938 507.0625 437.601562 C 499.472656 554.367188 496.445312 560.421875 496.445312 560.421875 C 496.445312 560.421875 503.269531 619.558594 515.398438 636.230469 C 527.527344 652.902344 515.398438 670.339844 488.855469 669.59375 C 462.316406 668.847656 447.925781 630.175781 437.308594 576.347656 C 437.308594 576.347656 398.632812 558.90625 371.347656 565.730469 C 344.058594 572.550781 344.058594 572.550781 344.058594 572.550781 C 344.058594 572.550781 319.03125 646.101562 303.871094 664.285156 C 288.714844 682.492188 252.320312 674.136719 252.320312 654.4375 C 252.320312 634.71875 259.910156 644.585938 272.042969 599.09375 C 284.171875 553.597656 283.675781 429.265625 286.703125 365.566406 C 289.730469 301.863281 273.554688 262.445312 249.8125 241.210938 C 226.070312 219.976562 191.152344 204.425781 196.210938 186.40625 C 201.269531 168.386719 227.707031 171.289062 247.261719 179.023438 C 265.964844 186.40625 287.21875 201.066406 307.667969 221.492188 Z M 307.667969 221.492188 " fill-opacity="1" fill-rule="nonzero"/></g><path fill="#c1ff72" d="M 392.0625 168.863281 C 392.726562 171.703125 391.085938 174.546875 388.328125 175.480469 C 382.894531 177.28125 373.667969 179.894531 365.914062 179.894531 C 354.050781 179.894531 344.636719 173.324219 344.636719 161.460938 C 344.636719 149.789062 353.554688 140.457031 365.207031 140 C 383.019531 139.273438 389.820312 159.324219 392.0625 168.863281 Z M 392.0625 168.863281 " fill-opacity="1" fill-rule="nonzero"/><path fill="#c1ff72" d="M 420.035156 168.304688 C 419.433594 171.144531 421.132812 173.964844 423.910156 174.835938 C 429.386719 176.535156 438.65625 178.941406 446.429688 178.796875 C 458.292969 178.546875 467.5625 171.789062 467.3125 159.925781 C 467.082031 148.253906 457.980469 139.109375 446.304688 138.878906 C 428.472656 138.546875 422.066406 158.703125 420.035156 168.304688 Z M 420.035156 168.304688 " fill-opacity="1" fill-rule="nonzero"/><path fill="#000000" d="M 380.261719 166.542969 C 377.070312 166.542969 374.476562 165.132812 374.476562 163.410156 C 374.476562 161.691406 377.070312 160.28125 380.261719 160.28125 C 381.257812 160.28125 382.171875 160.425781 382.980469 160.652344 C 382.625 152.9375 376.261719 146.78125 368.441406 146.78125 C 360.398438 146.78125 353.886719 153.292969 353.886719 161.335938 C 353.886719 169.382812 360.398438 175.894531 368.441406 175.894531 C 374.726562 175.894531 380.054688 171.914062 382.109375 166.355469 C 381.507812 166.457031 380.90625 166.542969 380.261719 166.542969 Z M 380.261719 166.542969 " fill-opacity="1" fill-rule="nonzero"/><path fill="#000000" d="M 454.433594 163.824219 C 451.242188 163.824219 448.648438 162.414062 448.648438 160.695312 C 448.648438 158.972656 451.242188 157.5625 454.433594 157.5625 C 455.078125 157.5625 455.679688 157.625 456.261719 157.730469 C 454.871094 150.988281 448.835938 145.972656 441.703125 146.117188 C 433.65625 146.28125 427.269531 152.9375 427.4375 160.984375 C 427.601562 169.03125 434.257812 175.417969 442.304688 175.25 C 449.230469 175.105469 454.910156 170.148438 456.257812 163.640625 C 455.679688 163.761719 455.078125 163.824219 454.433594 163.824219 Z M 454.433594 163.824219 " fill-opacity="1" fill-rule="nonzero"/><path fill="#c4748c" d="M 411.617188 174.253906 C 411.617188 176.058594 409.128906 179.523438 406.039062 179.523438 C 402.96875 179.523438 400.460938 176.058594 400.460938 174.253906 C 400.460938 172.453125 402.949219 172.285156 406.039062 172.285156 C 409.128906 172.285156 411.617188 172.453125 411.617188 174.253906 Z M 411.617188 174.253906 " fill-opacity="1" fill-rule="nonzero"/><g clip-path="url(#f25ca5cb56)"><path fill="#000000" d="M 166.433594 302.175781 L 168.070312 302.464844 L 169.027344 302.671875 L 170.828125 303.109375 L 173.855469 304 C 175.804688 304.621094 177.589844 305.285156 179.375 305.992188 C 181.074219 306.738281 182.816406 307.464844 184.472656 308.25 L 189.304688 310.78125 C 192.355469 312.625 195.464844 314.449219 198.222656 316.585938 C 199.613281 317.644531 201.042969 318.660156 202.390625 319.757812 L 206.265625 323.179688 C 216.449219 332.46875 224.140625 343.480469 229.78125 354.761719 C 235.421875 366.0625 239.382812 377.695312 241.765625 389.183594 L 242.722656 393.496094 C 243.03125 394.925781 243.363281 396.441406 243.550781 397.5625 L 244.898438 404.902344 C 245.769531 409.816406 246.804688 414.542969 247.78125 419.355469 C 251.96875 438.246094 256.988281 456.179688 265.988281 469.371094 C 270.445312 476.046875 275.980469 481.832031 282.804688 487.035156 C 289.585938 492.21875 297.527344 496.78125 305.988281 500.96875 L 306.339844 501.136719 C 315.089844 505.46875 318.675781 516.085938 314.324219 524.859375 C 310.175781 533.214844 300.242188 536.84375 291.742188 533.359375 C 281.519531 529.152344 271.210938 524.257812 261.21875 517.703125 C 251.242188 511.195312 241.707031 502.710938 234.074219 492.863281 C 226.421875 483.035156 220.574219 472.230469 216.179688 461.65625 C 211.742188 451.058594 208.300781 440.546875 205.273438 430.179688 C 203.839844 425.035156 202.347656 419.851562 201.0625 414.75 L 199.113281 407.078125 C 198.78125 405.710938 198.472656 404.734375 198.160156 403.679688 L 197.226562 400.546875 C 194.902344 392.105469 191.484375 384.433594 187.5 377.695312 C 183.519531 370.9375 178.710938 365.296875 173.378906 361.167969 L 171.390625 359.632812 C 170.707031 359.179688 170 358.785156 169.335938 358.328125 C 168.011719 357.375 166.558594 356.792969 165.210938 356.046875 C 164.503906 355.777344 163.820312 355.488281 163.15625 355.175781 L 161.167969 354.492188 C 160.566406 354.328125 159.921875 354.160156 159.40625 354.035156 L 158.742188 353.910156 C 158.71875 353.933594 158.699219 353.933594 158.679688 353.933594 C 158.679688 353.933594 158.617188 353.933594 158.679688 353.933594 C 158.90625 353.972656 159.136719 354.015625 159.363281 354.058594 C 144.929688 352.128906 134.914062 338.898438 136.886719 324.550781 C 138.855469 310.222656 152.085938 300.183594 166.433594 302.175781 Z M 166.433594 302.175781 " fill-opacity="1" fill-rule="nonzero"/></g></svg>