<svg xmlns="http://www.w3.org/2000/svg" xmlns:xlink="http://www.w3.org/1999/xlink" width="1000" zoomAndPan="magnify" viewBox="0 0 750 749.999995" height="1000" preserveAspectRatio="xMidYMid meet" version="1.0"><path fill="#000000" d="M 239.050781 277.417969 L 241.941406 254.34375 C 241.347656 245.191406 223.675781 216.359375 227.027344 201.085938 C 233.902344 169.933594 263.09375 141.332031 263.09375 141.332031 C 263.09375 141.332031 256.050781 112.332031 276.59375 79.113281 C 279.949219 73.691406 287.816406 73.628906 291.359375 78.921875 C 300.597656 92.695312 316.710938 116.359375 326.558594 128.847656 C 326.558594 128.847656 353.496094 127.476562 372.730469 135.386719 C 372.730469 135.386719 390.40625 103.726562 410 87.421875 C 414.722656 83.5 421.875 85.335938 423.984375 91.09375 C 433.539062 117.035156 454.378906 187.757812 427.546875 254.640625 C 427.546875 254.640625 440.054688 227.726562 470.828125 204.273438 C 501.601562 180.816406 517 208.953125 510.25 229.984375 C 503.5 251.011719 476.585938 254.871094 472.75 295.261719 C 468.910156 335.652344 440.054688 355.859375 440.054688 355.859375 C 440.054688 355.859375 450.410156 392.222656 465.789062 414.285156 C 465.914062 414.453125 466.378906 414.472656 467.136719 414.390625 C 485.742188 412.175781 503.691406 421.898438 510.988281 439.152344 L 511.453125 440.246094 C 511.453125 440.246094 510.859375 407.722656 523.261719 378.449219 C 533.597656 354.046875 551.421875 338.796875 571.097656 347.90625 C 587.214844 355.351562 579.9375 379.652344 570.613281 411.140625 C 562.429688 438.792969 567.621094 461.253906 568.695312 484.117188 C 569.8125 507.824219 549.585938 527.714844 526.027344 524.996094 C 525.183594 524.890625 524.339844 524.785156 523.496094 524.613281 C 523.496094 524.613281 508.351562 577.261719 444.148438 584.472656 C 379.945312 591.6875 366.253906 601.789062 316.480469 588.082031 C 266.703125 574.371094 242.613281 511.328125 236.414062 446.703125 C 233.882812 420.378906 235.191406 409.199219 234.050781 372.246094 C 234.050781 372.246094 210.449219 371.699219 198.195312 347.65625 C 186.109375 323.96875 196.632812 284.570312 165.503906 255.820312 C 143.734375 235.699219 138.398438 214.480469 155.378906 204.207031 C 168.835938 196.066406 208.277344 201.085938 239.050781 277.417969 Z M 239.050781 277.417969 " fill-opacity="1" fill-rule="nonzero"/><path fill="#c1ff72" d="M 309.960938 195.730469 C 310.382812 198.976562 308.253906 201.972656 305.066406 202.710938 C 298.804688 204.125 288.214844 206.042969 279.527344 205.199219 C 266.28125 203.914062 256.492188 195.539062 257.78125 182.273438 C 259.046875 169.238281 270.011719 159.789062 283.109375 160.546875 C 303.105469 161.6875 308.527344 184.804688 309.960938 195.730469 Z M 309.960938 195.730469 " fill-opacity="1" fill-rule="nonzero"/><path fill="#c1ff72" d="M 341.28125 198.15625 C 340.292969 201.277344 341.875 204.609375 344.890625 205.875 C 350.816406 208.363281 360.917969 212.074219 369.609375 212.75 C 382.875 213.785156 393.96875 207.226562 395.003906 193.957031 C 396.015625 180.902344 386.839844 169.679688 373.828125 168.164062 C 353.957031 165.820312 344.59375 187.652344 341.28125 198.15625 Z M 341.28125 198.15625 " fill-opacity="1" fill-rule="nonzero"/><path fill="#000000" d="M 297.03125 191.828125 C 293.46875 191.46875 290.726562 189.632812 290.914062 187.695312 C 291.105469 185.753906 294.140625 184.464844 297.726562 184.824219 C 298.824219 184.929688 299.835938 185.203125 300.722656 185.542969 C 301.164062 176.875 294.734375 169.300781 286 168.457031 C 277.015625 167.570312 269.023438 174.152344 268.136719 183.136719 C 267.25 192.125 273.832031 200.117188 282.816406 201.003906 C 289.839844 201.675781 296.230469 197.816406 299.121094 191.828125 C 298.445312 191.890625 297.769531 191.914062 297.03125 191.828125 Z M 297.03125 191.828125 " fill-opacity="1" fill-rule="nonzero"/><path fill="#000000" d="M 380.195312 196.910156 C 376.632812 196.550781 373.890625 194.71875 374.082031 192.777344 C 374.269531 190.835938 377.308594 189.550781 380.894531 189.910156 C 381.609375 189.972656 382.265625 190.121094 382.898438 190.308594 C 382.074219 182.632812 375.894531 176.367188 367.902344 175.753906 C 358.894531 175.058594 351.027344 181.789062 350.332031 190.792969 C 349.636719 199.800781 356.363281 207.667969 365.371094 208.363281 C 373.132812 208.953125 380.007812 204.039062 382.222656 196.933594 C 381.589844 196.953125 380.914062 196.972656 380.195312 196.910156 Z M 380.195312 196.910156 " fill-opacity="1" fill-rule="nonzero"/><path fill="#c4748c" d="M 331.242188 203.871094 C 331.054688 205.894531 327.890625 209.480469 324.453125 209.144531 C 321.011719 208.808594 318.609375 204.671875 318.796875 202.648438 C 318.988281 200.625 321.792969 200.730469 325.230469 201.066406 C 328.667969 201.402344 331.433594 201.867188 331.242188 203.871094 Z M 331.242188 203.871094 " fill-opacity="1" fill-rule="nonzero"/><path fill="#ffffff" d="M 321.265625 459.273438 C 321.011719 459.273438 320.78125 459.1875 320.570312 459.019531 C 307.15625 447.460938 291.738281 449.148438 291.570312 449.167969 C 291 449.253906 290.472656 448.832031 290.386719 448.242188 C 290.324219 447.671875 290.726562 447.144531 291.316406 447.058594 C 291.96875 446.976562 307.808594 445.226562 321.941406 457.394531 C 322.382812 457.773438 322.425781 458.449219 322.046875 458.894531 C 321.855469 459.144531 321.5625 459.273438 321.265625 459.273438 Z M 321.265625 459.273438 " fill-opacity="1" fill-rule="nonzero"/><path fill="#ffffff" d="M 362.542969 566.691406 C 359.421875 566.691406 356.34375 566.1875 353.429688 565.152344 C 352.882812 564.964844 352.585938 564.351562 352.796875 563.804688 C 352.988281 563.253906 353.601562 562.980469 354.148438 563.171875 C 362.839844 566.269531 373.425781 564.183594 381.105469 557.835938 C 389.371094 551 392.914062 540.664062 391.058594 528.75 C 390.277344 523.707031 388.738281 517.359375 386.945312 510.019531 C 382.074219 489.980469 376 465.03125 380.070312 445.582031 C 385.113281 421.476562 377.179688 405.445312 367.078125 400.277344 C 357.628906 395.425781 346.28125 399.117188 335.96875 410.382812 C 310.699219 437.96875 326.898438 493.441406 327.066406 493.988281 C 327.234375 494.539062 326.917969 495.128906 326.347656 495.296875 C 325.800781 495.464844 325.210938 495.148438 325.042969 494.582031 C 324.347656 492.261719 308.335938 437.421875 334.40625 408.925781 C 345.246094 397.09375 357.820312 393.128906 368.027344 398.378906 C 381.019531 405.046875 386.691406 424.175781 382.117188 446.003906 C 378.152344 464.988281 384.140625 489.6875 388.972656 509.511719 C 390.765625 516.917969 392.324219 523.285156 393.125 528.410156 C 395.085938 541.109375 391.292969 552.117188 382.433594 559.457031 C 376.757812 564.183594 369.546875 566.691406 362.542969 566.691406 Z M 362.542969 566.691406 " fill-opacity="1" fill-rule="nonzero"/><path fill="#000000" d="M 427.210938 520.820312 C 427.210938 520.820312 460.304688 571.988281 510.375 596.8125 C 570.003906 626.363281 584.21875 600.378906 601.703125 631.65625 C 612.503906 650.957031 592.824219 674.453125 558.339844 674.980469 C 523.855469 675.507812 486.480469 650.132812 456.613281 619.632812 C 426.746094 589.113281 418.183594 563.128906 418.183594 563.128906 Z M 427.210938 520.820312 " fill-opacity="1" fill-rule="nonzero"/></svg>