<svg xmlns="http://www.w3.org/2000/svg" xmlns:xlink="http://www.w3.org/1999/xlink" width="1000" zoomAndPan="magnify" viewBox="0 0 750 749.999995" height="1000" preserveAspectRatio="xMidYMid meet" version="1.0"><path fill="#000000" d="M 135.984375 378.925781 C 135.984375 378.925781 108.894531 359.910156 107.171875 327.628906 C 105.882812 303.578125 129.664062 253.703125 129.664062 253.703125 C 129.664062 253.703125 136.441406 197.667969 175.71875 165.226562 C 181.394531 160.546875 189.921875 162.347656 193.148438 168.9375 L 216.121094 215.800781 C 216.121094 215.800781 244.933594 205.417969 285.285156 218.113281 C 285.285156 218.113281 295.105469 193.175781 307.425781 173.886719 C 311.59375 167.324219 321.007812 166.867188 325.824219 172.972656 C 339.382812 190.164062 364.429688 225.214844 379.84375 266.535156 C 401.738281 325.339844 361.386719 391.058594 361.386719 391.058594 C 361.386719 391.058594 504.339844 328.8125 578.128906 368.003906 C 651.917969 407.199219 680.730469 540.953125 632.308594 575.519531 C 583.886719 610.085938 534.308594 624.75 477.816406 619.746094 C 421.324219 614.742188 373.519531 590.53125 373.519531 590.53125 C 373.519531 590.53125 325.636719 614.742188 266.832031 604.359375 C 208.027344 593.972656 208.027344 585.902344 164.230469 593.972656 C 120.4375 602.042969 69.699219 599.730469 75.457031 546.710938 C 81.214844 493.6875 115.808594 480.988281 115.808594 480.988281 C 115.808594 480.988281 112.929688 422.75 135.984375 378.925781 Z M 135.984375 378.925781 " fill-opacity="1" fill-rule="nonzero"/><path fill="#c1ff72" d="M 221.476562 296.421875 C 222.363281 300.242188 220.15625 304.089844 216.445312 305.300781 C 209.128906 307.71875 196.726562 311.246094 186.261719 311.246094 C 170.308594 311.246094 157.640625 302.394531 157.640625 286.441406 C 157.640625 270.730469 169.636719 258.167969 185.320312 257.550781 C 209.316406 256.609375 218.488281 283.5625 221.476562 296.421875 Z M 221.476562 296.421875 " fill-opacity="1" fill-rule="nonzero"/><path fill="#c1ff72" d="M 259.109375 295.667969 C 258.304688 299.488281 260.589844 303.308594 264.328125 304.464844 C 271.699219 306.753906 284.15625 310.007812 294.621094 309.792969 C 310.570312 309.46875 323.054688 300.351562 322.730469 284.398438 C 322.410156 268.6875 310.167969 256.394531 294.457031 256.070312 C 270.460938 255.613281 261.855469 282.757812 259.109375 295.667969 Z M 259.109375 295.667969 " fill-opacity="1" fill-rule="nonzero"/><path fill="#000000" d="M 205.605469 293.273438 C 201.300781 293.273438 197.828125 291.390625 197.828125 289.050781 C 197.828125 286.710938 201.328125 284.828125 205.605469 284.828125 C 206.921875 284.828125 208.160156 285.015625 209.261719 285.339844 C 208.777344 274.957031 200.222656 266.667969 189.707031 266.667969 C 178.890625 266.667969 170.09375 275.4375 170.09375 286.28125 C 170.09375 297.09375 178.863281 305.890625 189.707031 305.890625 C 198.152344 305.890625 205.335938 300.539062 208.078125 293.03125 C 207.300781 293.195312 206.464844 293.273438 205.605469 293.273438 Z M 205.605469 293.273438 " fill-opacity="1" fill-rule="nonzero"/><path fill="#000000" d="M 305.40625 289.644531 C 301.101562 289.644531 297.632812 287.761719 297.632812 285.417969 C 297.632812 283.078125 301.128906 281.195312 305.40625 281.195312 C 306.269531 281.195312 307.074219 281.277344 307.855469 281.4375 C 305.972656 272.371094 297.875 265.621094 288.269531 265.835938 C 277.457031 266.050781 268.847656 275.007812 269.0625 285.824219 C 269.277344 296.636719 278.238281 305.246094 289.050781 305.03125 C 298.359375 304.84375 306.027344 298.171875 307.828125 289.429688 C 307.074219 289.535156 306.269531 289.644531 305.40625 289.644531 Z M 305.40625 289.644531 " fill-opacity="1" fill-rule="nonzero"/><path fill="#c4748c" d="M 247.8125 303.660156 C 247.8125 306.078125 244.449219 310.734375 240.308594 310.734375 C 236.164062 310.734375 232.800781 306.078125 232.800781 303.660156 C 232.800781 301.238281 236.164062 301.023438 240.308594 301.023438 C 244.449219 301.023438 247.8125 301.238281 247.8125 303.660156 Z M 247.8125 303.660156 " fill-opacity="1" fill-rule="nonzero"/><path fill="#000000" d="M 638.253906 195.570312 C 638.980469 195.4375 638.441406 195.515625 638.414062 195.488281 L 637.796875 195.570312 L 636.289062 195.8125 C 635.214844 196 634.109375 196.269531 633.007812 196.566406 C 630.773438 197.15625 628.597656 197.882812 626.578125 198.71875 C 622.488281 200.359375 619.074219 202.402344 616.515625 204.554688 C 615.199219 205.605469 614.148438 206.707031 613.207031 207.863281 C 612.238281 208.992188 611.460938 210.203125 610.789062 211.601562 C 609.363281 214.265625 608.472656 217.738281 608.152344 222.015625 C 607.882812 226.183594 608.097656 230.085938 609.308594 234.578125 C 610.464844 239.015625 612.457031 243.859375 615.226562 249.023438 C 620.714844 259.351562 629.1875 270.597656 638.039062 282.917969 C 646.886719 295.265625 656.4375 308.957031 663.753906 325.234375 C 667.386719 333.332031 670.425781 342.074219 672.335938 351.191406 L 673.574219 358.078125 L 674.40625 365.019531 C 674.648438 369.40625 674.8125 373.734375 674.972656 378.09375 C 675 395.605469 671.664062 413.414062 665.019531 429.878906 C 661.578125 438.082031 657.460938 445.964844 652.429688 453.308594 C 649.902344 456.96875 647.210938 460.546875 644.253906 463.960938 C 642.773438 465.683594 641.238281 467.378906 639.597656 469.019531 C 638.816406 469.851562 637.902344 470.714844 637.042969 471.546875 C 636.613281 471.953125 636.128906 472.410156 635.617188 472.867188 L 633.761719 474.480469 C 625.234375 481.664062 612.507812 480.585938 605.328125 472.058594 C 598.144531 463.53125 599.21875 450.808594 607.746094 443.625 C 607.71875 443.625 607.558594 443.757812 607.695312 443.652344 L 607.9375 443.382812 L 608.5 442.761719 C 608.902344 442.28125 609.335938 441.847656 609.765625 441.3125 C 610.625 440.289062 611.488281 439.160156 612.347656 438.003906 C 614.042969 435.714844 615.601562 433.242188 617.082031 430.710938 C 619.988281 425.628906 622.328125 420.167969 624.183594 414.597656 C 627.679688 403.355469 629.027344 391.542969 628.113281 379.546875 L 627.035156 370.5625 L 626.230469 366.578125 L 625.179688 362.625 C 623.621094 357.40625 621.414062 352.269531 618.617188 347.105469 C 613.019531 336.800781 604.976562 326.550781 595.804688 315.628906 C 586.65625 304.601562 576.191406 293.085938 566.535156 278.074219 C 561.746094 270.570312 557.199219 262.097656 553.785156 252.492188 C 550.3125 242.96875 548.324219 232.101562 548.160156 221.53125 C 547.945312 211.09375 549.371094 199.738281 553.542969 188.710938 C 557.523438 177.679688 564.277344 167.40625 572.238281 159.28125 C 580.226562 151.074219 589.265625 144.835938 598.441406 140.128906 C 603.066406 137.761719 607.71875 135.742188 612.507812 134.019531 C 614.902344 133.160156 617.324219 132.378906 619.824219 131.652344 C 621.089844 131.304688 622.355469 130.953125 623.699219 130.632812 L 625.796875 130.148438 C 626.660156 129.957031 627.035156 129.878906 628.675781 129.609375 C 646.886719 126.972656 663.78125 139.5625 666.417969 157.773438 C 669.054688 176.011719 656.4375 192.933594 638.253906 195.570312 Z M 638.253906 195.570312 " fill-opacity="1" fill-rule="nonzero"/><path fill="#ffffff" d="M 196.511719 582.621094 C 196.242188 582.621094 195.972656 582.542969 195.730469 582.378906 C 195.113281 581.949219 194.976562 581.117188 195.410156 580.496094 C 195.625 580.199219 216.390625 550.019531 195.570312 529.195312 C 174.480469 508.105469 127.054688 521.339844 126.570312 521.476562 C 125.84375 521.664062 125.117188 521.261719 124.902344 520.5625 C 124.6875 519.835938 125.117188 519.109375 125.816406 518.894531 C 127.832031 518.328125 175.261719 505.09375 197.453125 527.3125 C 219.890625 549.75 197.828125 581.761719 197.613281 582.082031 C 197.347656 582.40625 196.914062 582.621094 196.511719 582.621094 Z M 196.511719 582.621094 " fill-opacity="1" fill-rule="nonzero"/><path fill="#ffffff" d="M 239.445312 588.96875 C 239.203125 588.96875 238.960938 588.917969 238.746094 588.753906 C 238.53125 588.621094 217.171875 574.820312 230.433594 543.859375 C 243.617188 513.109375 306.027344 514.453125 308.664062 514.507812 C 309.414062 514.535156 309.980469 515.152344 309.980469 515.878906 C 309.953125 516.605469 309.363281 517.199219 308.636719 517.199219 C 308.582031 517.199219 308.203125 517.171875 306.996094 517.171875 C 297.09375 517.171875 244.234375 518.4375 232.910156 544.878906 C 220.5625 573.664062 239.363281 585.929688 240.171875 586.441406 C 240.789062 586.84375 240.980469 587.679688 240.601562 588.296875 C 240.332031 588.726562 239.902344 588.96875 239.445312 588.96875 Z M 239.445312 588.96875 " fill-opacity="1" fill-rule="nonzero"/></svg>